<?xml version="1.0" encoding="utf-8"?>
<!-- Generator: Adobe Illustrator 19.0.0, SVG Export Plug-In . SVG Version: 6.00 Build 0)  -->
<svg version="1.1" id="Layer_1" xmlns="http://www.w3.org/2000/svg" xmlns:xlink="http://www.w3.org/1999/xlink" x="0px" y="0px"
	 viewBox="0 0 500 500" style="enable-background:new 0 0 500 500;" xml:space="preserve">
<style type="text/css">
	.st0{fill:#6158AC;}
	.st1{fill:#2D254F;}
	.st2{fill:#6661A8;}
	.st3{fill:url(#XMLID_139_);}
	.st4{fill:#BCBEC0;}
	.st5{fill:#FFFAFC;}
	.st6{fill:#A49BC6;}
	.st7{fill:#849899;}
	.st8{fill:#A498A4;}
	.st9{fill:url(#XMLID_140_);}
	.st10{fill:#306F37;}
</style>
<g id="XMLID_1_">
	<path id="XMLID_3_" class="st0" d="M250,67.5c100.5,0,182.5,82,182.5,182.5c0,100.5-82,182.5-182.5,182.5S67.5,350.5,67.5,250
		C67.5,149.5,149.5,67.5,250,67.5L250,67.5z"/>
	<path id="XMLID_4_" class="st1" d="M250,80.2c93.5,0,169.8,76.3,169.8,169.8c0,93.5-76.3,169.8-169.8,169.8
		c-93.5,0-169.8-76.3-169.8-169.8C80.2,156.5,156.5,80.2,250,80.2L250,80.2z"/>
	<path id="XMLID_5_" class="st1" d="M250,80.9c93.1,0,169.1,75.9,169.1,169.1c0,93.1-75.9,169.1-169.1,169.1S80.9,343.1,80.9,250
		C80.9,156.9,156.9,80.9,250,80.9z"/>
	<path id="XMLID_8_" class="st2" d="M250,130.5c65.8,0,119.5,53.7,119.5,119.5S315.8,369.5,250,369.5S130.5,315.8,130.5,250
		S184.2,130.5,250,130.5z M250,121c71.1,0,129,57.9,129,129c0,71.1-57.9,129-129,129c-71.1,0-129-57.9-129-129
		C121,178.9,178.9,121,250,121z"/>
	
		<radialGradient id="XMLID_139_" cx="-0.2329" cy="-2.053802e-002" r="0.146" gradientTransform="matrix(818.4967 0 0 818.4967 440.6332 266.8103)" gradientUnits="userSpaceOnUse">
		<stop  offset="0" style="stop-color:#938EAE"/>
		<stop  offset="0.23" style="stop-color:#908BAC"/>
		<stop  offset="0.62" style="stop-color:#645E89"/>
		<stop  offset="1" style="stop-color:#47416A"/>
	</radialGradient>
	<circle id="XMLID_9_" class="st3" cx="250" cy="250" r="119.5"/>
	<path id="XMLID_29_" class="st4" d="M119.2,159.7l11.2,10.9l-2.1,3.6l-9.3-2.6l6.9,6.7l-2.1,3.6l-15-4.2l2-3.4l9.8,3.3l-7.5-7.3
		l1.9-3.3l10,3l-7.7-7L119.2,159.7L119.2,159.7z M145.7,151.6l-2.5,2.9l-5.1-4.4l-3.4,3.9l5.1,4.4l-2.5,2.9l-11.4-9.9l2.5-2.9
		l4.2,3.6l3.4-3.9l-4.2-3.6l2.5-2.9L145.7,151.6z M157.6,130.6c1.6,1.9,2.3,3.8,2.2,5.7c-0.1,1.9-1,3.6-2.8,5.1
		c-1.8,1.5-3.6,2.1-5.5,1.8c-1.9-0.3-3.6-1.3-5.2-3.1c-1.6-1.9-2.3-3.8-2.2-5.7c0.1-1.9,1-3.6,2.8-5.1c1.7-1.5,3.6-2.1,5.5-1.8
		C154.2,127.6,156,128.7,157.6,130.6L157.6,130.6z M154.5,133.1c-0.5-0.6-1.1-1.1-1.7-1.6c-0.5-0.3-1-0.6-1.6-0.7
		c-0.5-0.1-1-0.1-1.4,0c-0.4,0.1-0.8,0.3-1.2,0.6c-0.3,0.3-0.6,0.6-0.8,1c-0.2,0.4-0.3,0.9-0.3,1.4c0,0.5,0.2,1.1,0.4,1.7
		c0.3,0.6,0.7,1.3,1.3,2c0.6,0.7,1.2,1.2,1.7,1.6c0.5,0.4,1.1,0.6,1.6,0.7c0.5,0.1,1,0.1,1.4,0c0.4-0.1,0.8-0.3,1.2-0.6
		c0.3-0.3,0.6-0.6,0.8-1.1c0.2-0.4,0.3-0.9,0.3-1.4c0-0.6-0.2-1.1-0.4-1.7C155.6,134.4,155.2,133.8,154.5,133.1z M189.7,102.6
		l3.5,15.2l-3.7,1.9l-6.4-7.2l2.2,9.4l-3.7,1.9L171.2,112l3.5-1.8l6.5,8.1l-2.3-10.2l3.4-1.7l6.8,8l-2.7-10L189.7,102.6L189.7,102.6
		z M202.2,114l1-15.9l4-1.1l8.9,13.3l-3.8,1l-1.7-2.7l-4.6,1.2l-0.1,3.2L202.2,114L202.2,114z M209.1,106.1l-2.8-4.4l-0.2,5.2
		L209.1,106.1z M236.1,106.8l-3.6,0.4l-7.1-9.8l1.3,10.5l-3.4,0.4l-1.8-15l4.6-0.6l5.8,8l-1.1-8.6l3.4-0.4L236.1,106.8z M247.8,106
		l-0.2-12.2l-4.5,0.1l0-2.9l12.7-0.2l0,2.9l-4.5,0.1l0.2,12.2L247.8,106z M268,107.3c-1-0.1-2-0.3-3-0.7c-0.8-0.3-1.6-0.7-2.3-1.1
		l0.4-3.6l0.3,0c0.7,0.7,1.4,1.3,2.3,1.8c0.9,0.5,1.7,0.7,2.6,0.8c0.2,0,0.5,0,0.9,0c0.4,0,0.7,0,0.9-0.1c0.3-0.1,0.5-0.2,0.7-0.4
		c0.2-0.2,0.4-0.5,0.4-0.8c0.1-0.4-0.1-0.7-0.3-1c-0.3-0.3-0.6-0.5-1-0.6c-0.5-0.2-1-0.4-1.6-0.6c-0.6-0.2-1.1-0.4-1.6-0.6
		c-1.1-0.5-1.9-1.2-2.3-2c-0.4-0.8-0.6-1.6-0.4-2.7c0.2-1.4,0.9-2.5,2.2-3.2c1.3-0.7,2.8-1,4.6-0.8c0.9,0.1,1.8,0.3,2.6,0.6
		c0.9,0.3,1.6,0.6,2.3,1l-0.4,3.4l-0.3,0c-0.5-0.6-1.2-1.1-1.9-1.5c-0.7-0.4-1.6-0.7-2.4-0.8c-0.3,0-0.6,0-0.9,0
		c-0.3,0-0.6,0.1-0.9,0.2c-0.3,0.1-0.5,0.2-0.7,0.4c-0.2,0.2-0.3,0.4-0.3,0.7c-0.1,0.4,0.1,0.7,0.3,1c0.2,0.3,0.7,0.5,1.5,0.8
		l1.4,0.5c0.5,0.2,0.9,0.4,1.4,0.6c1,0.5,1.7,1.1,2.1,1.8c0.4,0.7,0.6,1.6,0.5,2.6c-0.2,1.5-0.9,2.6-2.2,3.4
		C271.7,107.3,270,107.5,268,107.3L268,107.3z M296.9,113.5l3.8-11.6l-4.3-1.4l0.9-2.7l12.1,3.9l-0.9,2.7l-4.3-1.4l-3.8,11.6
		L296.9,113.5L296.9,113.5z M327,118.6c-1.1,2.2-2.6,3.6-4.4,4.3c-1.8,0.7-3.7,0.5-5.7-0.6c-2-1-3.3-2.5-3.8-4.3
		c-0.5-1.9-0.2-3.9,0.9-6c1.1-2.2,2.6-3.6,4.4-4.3c1.8-0.7,3.7-0.5,5.8,0.6c2,1,3.3,2.5,3.8,4.3C328.4,114.4,328.1,116.4,327,118.6
		L327,118.6z M323.5,116.8c0.4-0.8,0.7-1.5,0.8-2.2c0.1-0.7,0.1-1.2,0-1.7c-0.1-0.5-0.3-0.9-0.6-1.3c-0.3-0.3-0.6-0.6-1-0.8
		c-0.4-0.2-0.8-0.3-1.2-0.4c-0.5,0-1,0.1-1.4,0.3c-0.5,0.3-1,0.6-1.4,1.1c-0.5,0.6-1,1.2-1.3,1.9c-0.4,0.8-0.7,1.6-0.8,2.2
		c-0.1,0.6-0.1,1.1,0,1.7c0.1,0.5,0.3,1,0.6,1.3c0.3,0.3,0.6,0.6,1,0.8c0.4,0.2,0.8,0.3,1.3,0.3c0.5,0,0.9-0.1,1.4-0.3
		c0.5-0.2,0.9-0.6,1.4-1C322.6,118.3,323.1,117.6,323.5,116.8L323.5,116.8z M352.6,141c-0.5,0.6-1,1-1.6,1.2
		c-0.6,0.2-1.2,0.4-1.8,0.3c-0.7,0-1.4-0.2-2.1-0.5c-0.6-0.3-1.4-0.8-2.2-1.5l-4.6-3.9l9.7-11.6l4.1,3.4c0.8,0.7,1.5,1.3,1.8,1.7
		c0.4,0.4,0.7,0.9,0.9,1.4c0.2,0.6,0.3,1.1,0.2,1.7c-0.1,0.6-0.4,1.1-0.8,1.6c-0.4,0.5-1,0.9-1.7,1.2c-0.6,0.2-1.3,0.2-2,0l0,0.1
		c0.6,0.8,0.9,1.5,0.9,2.4C353.5,139.5,353.2,140.3,352.6,141L352.6,141z M352.8,133.2c0.2-0.2,0.3-0.4,0.3-0.7
		c0.1-0.3,0-0.6-0.1-0.8c-0.1-0.3-0.3-0.5-0.6-0.7c-0.4-0.3-0.8-0.7-1.2-1l-0.2-0.2l-2.1,2.5l0.4,0.3c0.5,0.4,0.9,0.7,1.1,0.9
		c0.2,0.2,0.5,0.3,0.8,0.4c0.3,0.1,0.6,0.1,0.9,0C352.4,133.6,352.6,133.4,352.8,133.2L352.8,133.2z M349.6,138.5
		c0.3-0.4,0.5-0.7,0.5-1c0-0.4-0.1-0.7-0.3-1c-0.2-0.3-0.4-0.5-0.6-0.7c-0.4-0.4-0.8-0.7-1.2-1.1l-0.5-0.4l-2.4,2.9l0.2,0.1
		c0.8,0.6,1.3,1.1,1.6,1.3c0.3,0.2,0.7,0.4,1.1,0.5c0.3,0.1,0.7,0.1,1,0C349.1,139,349.4,138.7,349.6,138.5z M355.2,150.1l11.4-9.9
		l6.7,7.7l-2.2,1.9l-4.2-4.9l-2,1.7l3.9,4.5l-2.2,1.9l-3.9-4.5l-2.9,2.5l4.2,4.9l-2.2,1.9L355.2,150.1L355.2,150.1z M373.3,173
		l15.7-3.1l2.1,3.6l-10.5,12l-2-3.4l2.2-2.4l-2.4-4.1l-3.1,0.7L373.3,173L373.3,173z M382.7,177.6l3.5-3.8l-5.1,1.2L382.7,177.6z"/>
	<path id="XMLID_49_" class="st5" d="M118.1,159.2l11.2,10.9l-2.1,3.6l-9.3-2.6l6.9,6.7l-2.1,3.6l-15-4.2l2-3.4l9.8,3.3l-7.5-7.3
		l1.9-3.3l10,3l-7.7-7L118.1,159.2L118.1,159.2z M144.6,151.1l-2.5,2.9l-5.1-4.4l-3.4,3.9l5.1,4.4l-2.5,2.9l-11.4-9.9l2.5-2.9
		l4.2,3.6l3.4-3.9l-4.2-3.6l2.5-2.9L144.6,151.1L144.6,151.1z M156.5,130c1.6,1.9,2.3,3.8,2.2,5.7c-0.1,1.9-1,3.6-2.8,5.1
		c-1.8,1.5-3.6,2.1-5.5,1.8c-1.9-0.3-3.6-1.3-5.2-3.1c-1.6-1.9-2.3-3.8-2.2-5.7c0.1-1.9,1-3.6,2.8-5.1c1.7-1.5,3.6-2.1,5.5-1.8
		C153.1,127.1,154.9,128.1,156.5,130L156.5,130z M153.4,132.5c-0.5-0.6-1.1-1.1-1.7-1.6c-0.5-0.3-1-0.6-1.6-0.7
		c-0.5-0.1-1-0.1-1.4,0c-0.8,0.2-1.6,0.8-2,1.6c-0.2,0.4-0.3,0.9-0.3,1.4c0,0.5,0.2,1.1,0.4,1.7c0.3,0.6,0.7,1.3,1.3,2
		c0.6,0.7,1.2,1.2,1.7,1.6c0.5,0.4,1.1,0.6,1.6,0.7c0.5,0.1,1,0.1,1.4,0c0.9-0.2,1.6-0.9,2-1.7c0.2-0.4,0.3-0.9,0.3-1.4
		c0-0.6-0.2-1.1-0.4-1.7C154.5,133.9,154.1,133.3,153.4,132.5L153.4,132.5z M188.6,102l3.5,15.2l-3.7,1.9l-6.4-7.2l2.2,9.4l-3.7,1.9
		l-10.3-11.7l3.5-1.8l6.5,8.1l-2.3-10.2l3.4-1.7l6.8,8l-2.7-10L188.6,102L188.6,102z M201.1,113.4l1-15.9l4-1.1l8.9,13.3l-3.8,1
		l-1.7-2.7l-4.6,1.2l-0.1,3.2L201.1,113.4L201.1,113.4z M208,105.6l-2.8-4.4l-0.2,5.2L208,105.6z M235,106.2l-3.6,0.4l-7.1-9.8
		l1.3,10.5l-3.4,0.4l-1.8-15l4.6-0.6l5.8,8l-1.1-8.6l3.4-0.4L235,106.2z M246.7,105.4l-0.2-12.2l-4.5,0.1l0-2.9l12.7-0.2l0,2.9
		l-4.5,0.1l0.2,12.2L246.7,105.4L246.7,105.4z M266.9,106.7c-1-0.1-2-0.3-3-0.7c-0.8-0.3-1.6-0.7-2.3-1.1l0.4-3.6l0.3,0
		c0.7,0.7,1.4,1.3,2.3,1.8c0.9,0.5,1.7,0.7,2.6,0.8c0.2,0,0.5,0,0.9,0c0.4,0,0.7,0,0.9-0.1c0.3-0.1,0.5-0.2,0.7-0.4
		c0.2-0.2,0.3-0.5,0.4-0.8c0.1-0.4-0.1-0.7-0.3-1c-0.3-0.3-0.6-0.5-1-0.6c-0.5-0.2-1.1-0.4-1.6-0.6c-0.5-0.2-1.1-0.4-1.6-0.6
		c-1.1-0.6-1.9-1.2-2.3-2c-0.4-0.8-0.6-1.7-0.4-2.7c0.2-1.4,0.9-2.5,2.2-3.2c1.3-0.7,2.8-1,4.6-0.8c0.9,0.1,1.8,0.3,2.6,0.6
		c0.9,0.3,1.6,0.6,2.3,1l-0.4,3.4l-0.3,0c-0.5-0.6-1.2-1.1-1.9-1.5c-0.8-0.4-1.6-0.7-2.4-0.8c-0.3,0-0.6-0.1-0.9,0
		c-0.3,0-0.6,0.1-0.9,0.2c-0.3,0.1-0.5,0.2-0.7,0.4c-0.2,0.2-0.3,0.4-0.3,0.7c-0.1,0.4,0.1,0.7,0.3,1c0.2,0.3,0.7,0.5,1.5,0.8
		l1.4,0.5c0.5,0.2,0.9,0.4,1.4,0.6c1,0.5,1.7,1.1,2.1,1.8c0.4,0.7,0.6,1.6,0.5,2.6c-0.2,1.5-0.9,2.6-2.2,3.4
		C270.5,106.7,268.9,107,266.9,106.7L266.9,106.7z M295.8,112.9l3.8-11.6l-4.3-1.4l0.9-2.7l12.1,3.9l-0.9,2.7l-4.3-1.4l-3.8,11.6
		L295.8,112.9L295.8,112.9z M325.9,118c-1.1,2.2-2.6,3.6-4.4,4.3s-3.7,0.5-5.7-0.6c-2-1-3.3-2.5-3.8-4.3c-0.5-1.9-0.2-3.9,0.9-6
		c1.1-2.2,2.6-3.6,4.4-4.2c1.8-0.7,3.7-0.5,5.8,0.6c2,1,3.3,2.5,3.8,4.3C327.3,113.8,327,115.8,325.9,118L325.9,118z M322.4,116.2
		c0.4-0.8,0.7-1.5,0.8-2.2c0.1-0.6,0.1-1.2,0-1.7c-0.1-0.5-0.3-0.9-0.6-1.3c-0.6-0.7-1.4-1.1-2.3-1.2c-0.5,0-0.9,0.1-1.4,0.3
		c-0.5,0.2-0.9,0.6-1.4,1.1c-0.5,0.5-0.9,1.1-1.3,1.9c-0.4,0.8-0.7,1.6-0.8,2.2c-0.1,0.6-0.1,1.2,0,1.7c0.1,0.5,0.3,1,0.6,1.3
		c0.3,0.3,0.6,0.6,1,0.8c0.4,0.2,0.8,0.3,1.3,0.3c0.5,0,0.9-0.1,1.4-0.3c0.5-0.2,0.9-0.6,1.4-1C321.5,117.7,322,117.1,322.4,116.2z
		 M351.5,140.5c-0.4,0.5-1,1-1.6,1.2c-0.6,0.3-1.2,0.4-1.8,0.3c-0.7,0-1.4-0.2-2.1-0.5c-0.6-0.3-1.4-0.8-2.2-1.5l-4.6-3.9l9.7-11.6
		l4.1,3.4c0.8,0.7,1.5,1.3,1.9,1.7c0.4,0.4,0.7,0.9,0.9,1.4c0.2,0.6,0.3,1.1,0.2,1.7c-0.1,0.6-0.4,1.1-0.8,1.6
		c-0.5,0.6-1,0.9-1.7,1.2c-0.6,0.2-1.3,0.2-2,0l-0.1,0.1c0.6,0.8,0.9,1.5,0.9,2.4C352.4,138.9,352.1,139.7,351.5,140.5z
		 M351.7,132.6c0.2-0.2,0.3-0.4,0.3-0.7c0.1-0.3,0-0.6-0.1-0.8c-0.1-0.3-0.3-0.5-0.6-0.7c-0.4-0.3-0.8-0.7-1.2-1l-0.2-0.2l-2.1,2.5
		l0.4,0.3c0.5,0.4,0.9,0.7,1.1,0.9c0.2,0.2,0.5,0.3,0.8,0.4c0.3,0.1,0.6,0.1,0.9,0C351.3,133,351.5,132.8,351.7,132.6L351.7,132.6z
		 M348.5,137.9c0.3-0.4,0.5-0.7,0.5-1c0-0.4-0.1-0.7-0.3-1c-0.2-0.3-0.4-0.5-0.6-0.7c-0.3-0.3-0.7-0.6-1.2-1.1l-0.5-0.4l-2.4,2.9
		l0.2,0.1c0.8,0.6,1.3,1.1,1.6,1.3c0.3,0.2,0.7,0.4,1.1,0.5c0.3,0.1,0.7,0.1,1,0C348,138.4,348.3,138.2,348.5,137.9z M354.1,149.6
		l11.4-9.9l6.7,7.7l-2.2,1.9l-4.2-4.9l-2,1.7l3.9,4.5l-2.2,1.9l-3.9-4.5l-2.9,2.5l4.2,4.9l-2.2,1.9L354.1,149.6z M372.2,172.5
		l15.7-3.1l2.1,3.6l-10.5,12l-2-3.4l2.2-2.4l-2.4-4.1l-3.1,0.7L372.2,172.5L372.2,172.5z M381.6,177.1l3.5-3.8l-5.1,1.2L381.6,177.1
		z"/>
	<path id="XMLID_69_" class="st4" d="M142.1,348.4l-14.3,6.3l-2.6-3.3l5.9-7.7l-8.8,3.9l-2.6-3.3l9.6-12.3l2.4,3.1L125,343l9.6-4.2
		l2.3,3l-6.5,8.1l9.3-4.5L142.1,348.4L142.1,348.4z M144.7,372.3l-2.7-2.6l4.7-4.8l-3.7-3.6l-4.7,4.8l-2.7-2.6l10.5-10.9l2.7,2.6
		l-3.8,4l3.7,3.6l3.8-4l2.7,2.6L144.7,372.3z M167.3,380.2c-1.4,2-3.1,3.2-5,3.5c-1.9,0.4-3.7-0.1-5.6-1.5c-1.8-1.3-2.9-3-3.1-4.9
		c-0.2-1.9,0.4-3.8,1.8-5.8c1.4-2,3.1-3.1,5-3.5c1.9-0.4,3.7,0.1,5.6,1.4c1.8,1.3,2.9,3,3.1,4.9
		C169.3,376.3,168.7,378.2,167.3,380.2z M164.1,377.9c0.5-0.7,0.9-1.4,1.1-2c0.2-0.6,0.3-1.2,0.3-1.7c0-0.5-0.1-0.9-0.4-1.4
		c-0.4-0.8-1.2-1.3-2-1.5c-0.5-0.1-1-0.1-1.4,0.1c-0.5,0.1-1,0.4-1.5,0.8c-0.5,0.4-1.1,1-1.6,1.7c-0.5,0.8-0.9,1.4-1.1,2
		c-0.2,0.6-0.3,1.2-0.3,1.7c0,0.5,0.1,1,0.4,1.4c0.4,0.8,1.2,1.3,2.1,1.5c0.5,0.1,0.9,0.1,1.4-0.1c0.5-0.2,1-0.4,1.5-0.8
		C163,379.2,163.5,378.7,164.1,377.9L164.1,377.9z M204.2,390.1l-9.2,12.6l-3.9-1.6l1.3-9.6l-5.7,7.8l-3.9-1.6l2.1-15.5l3.7,1.5
		l-1.9,10.2l6.2-8.4l3.5,1.4l-1.6,10.3l5.8-8.6L204.2,390.1L204.2,390.1z M204.4,406l8.6-13.4l4,1l1.3,15.9l-3.8-0.9l-0.2-3.2
		l-4.6-1.1l-1.7,2.8L204.4,406L204.4,406z M214.3,402.5l-0.3-5.2l-2.7,4.5L214.3,402.5L214.3,402.5z M238.5,412.6l-3.6-0.5
		l-4.3-11.3l-1.5,10.4l-3.4-0.5l2.1-15l4.6,0.6l3.6,9.3l1.2-8.6l3.4,0.5L238.5,412.6L238.5,412.6z M250.6,413l-0.4-12.2l-4.5,0.2
		l-0.1-2.9l12.7-0.4l0.1,2.9l-4.5,0.2l0.4,12.2L250.6,413L250.6,413z M271,411.9c-1.1,0.2-2.2,0.2-3.1,0.1c-0.9-0.1-1.7-0.3-2.5-0.5
		l-0.5-3.6l0.3,0c0.8,0.5,1.7,0.9,2.7,1.1c1,0.2,1.9,0.3,2.7,0.1c0.2,0,0.5-0.1,0.8-0.2c0.3-0.1,0.6-0.2,0.8-0.3
		c0.2-0.1,0.4-0.3,0.6-0.6c0.2-0.3,0.2-0.6,0.2-0.8c0-0.4-0.3-0.7-0.6-0.9c-0.3-0.2-0.7-0.3-1.1-0.4c-0.6-0.1-1.1-0.1-1.7-0.1
		c-0.6,0-1.1-0.1-1.7-0.2c-1.2-0.2-2.1-0.7-2.7-1.3c-0.6-0.6-1-1.5-1.1-2.5c-0.2-1.4,0.2-2.6,1.3-3.7c1.1-1,2.5-1.7,4.3-1.9
		c0.9-0.1,1.8-0.2,2.7-0.1c0.8,0,1.7,0.2,2.5,0.4l0.5,3.4l-0.3,0c-0.7-0.4-1.4-0.7-2.2-0.9c-1.1-0.3-2.3-0.3-3.4,0
		c-0.3,0.1-0.5,0.2-0.8,0.4c-0.2,0.1-0.4,0.3-0.5,0.6c-0.1,0.2-0.2,0.5-0.2,0.7c0,0.4,0.2,0.7,0.5,0.9c0.3,0.2,0.9,0.3,1.7,0.4
		c0.5,0,1,0.1,1.5,0.1c0.5,0,1,0.1,1.6,0.2c1.1,0.2,1.9,0.6,2.5,1.2c0.6,0.6,1,1.4,1.1,2.4c0.2,1.5-0.2,2.8-1.3,3.8
		C274.6,410.9,273,411.6,271,411.9L271,411.9z M299.8,405.1l-4.2-11.5l-4.2,1.5l-1-2.7l12-4.4l1,2.7l-4.2,1.5l4.2,11.5L299.8,405.1
		L299.8,405.1z M323.7,386.9c1.1,2.2,1.4,4.2,0.9,6c-0.5,1.8-1.8,3.3-3.8,4.3c-2,1-4,1.2-5.8,0.5c-1.8-0.7-3.3-2.1-4.4-4.2
		c-1.1-2.2-1.4-4.2-0.9-6c0.5-1.8,1.8-3.3,3.8-4.3c2-1,3.9-1.2,5.7-0.6C321.1,383.3,322.6,384.7,323.7,386.9L323.7,386.9z
		 M320.2,388.7c-0.3-0.7-0.8-1.3-1.3-1.9c-0.4-0.4-0.9-0.8-1.4-1.1c-0.4-0.2-0.9-0.3-1.4-0.3c-0.4,0-0.9,0.1-1.3,0.3
		c-0.4,0.2-0.8,0.5-1,0.8c-0.3,0.3-0.5,0.7-0.6,1.3c-0.1,0.5-0.1,1.1,0,1.7c0.1,0.7,0.4,1.4,0.8,2.2c0.4,0.8,0.9,1.5,1.3,1.9
		c0.4,0.5,0.9,0.8,1.4,1c0.5,0.2,0.9,0.3,1.4,0.3c0.4,0,0.9-0.1,1.3-0.3c0.4-0.2,0.8-0.5,1-0.8c0.3-0.4,0.5-0.8,0.6-1.3
		c0.1-0.6,0.1-1.2,0-1.7C320.9,390.3,320.6,389.5,320.2,388.7L320.2,388.7z M351,371.8c0.5,0.6,0.8,1.2,0.9,1.8
		c0.1,0.6,0.1,1.2,0,1.8c-0.2,0.7-0.4,1.3-0.9,1.9c-0.4,0.6-1,1.2-1.8,1.9l-4.7,3.8l-9.5-11.8l4.2-3.4c0.9-0.7,1.5-1.2,2-1.5
		c0.5-0.3,1-0.5,1.6-0.6c0.6-0.1,1.2-0.1,1.7,0.1c0.5,0.2,1,0.6,1.4,1.1c0.5,0.6,0.7,1.2,0.8,1.9c0.1,0.7-0.1,1.4-0.4,2l0,0.1
		c0.8-0.4,1.7-0.6,2.5-0.5C349.6,370.5,350.3,371,351,371.8L351,371.8z M343.3,370c-0.2-0.2-0.4-0.4-0.6-0.5
		c-0.3-0.1-0.5-0.1-0.8-0.1c-0.3,0.1-0.5,0.2-0.8,0.4c-0.4,0.3-0.8,0.6-1.2,1l-0.2,0.2l2,2.5l0.4-0.3c0.5-0.4,0.9-0.7,1-0.9
		c0.2-0.2,0.4-0.4,0.5-0.7c0.1-0.3,0.2-0.6,0.1-0.9C343.6,370.5,343.5,370.2,343.3,370L343.3,370z M347.9,374.2
		c-0.3-0.4-0.6-0.6-0.9-0.7c-0.3-0.1-0.7-0.1-1,0.1c-0.3,0.1-0.6,0.3-0.8,0.5c-0.3,0.2-0.7,0.6-1.3,1l-0.5,0.4l2.4,2.9l0.2-0.1
		c0.8-0.6,1.3-1.1,1.6-1.3c0.3-0.2,0.5-0.6,0.7-0.9c0.2-0.3,0.2-0.6,0.2-1C348.3,374.8,348.1,374.4,347.9,374.2L347.9,374.2z
		 M359.9,370l-10.5-10.9l7.4-7.1l2,2.1l-4.6,4.5l1.8,1.9l4.3-4.1l2,2.1l-4.3,4.1l2.7,2.7l4.6-4.5l2,2.1L359.9,370L359.9,370z
		 M379.7,348.2l-9.5-12.9l2.4-3.4l15.3,4.5l-2.2,3.2l-3.1-1l-2.7,3.9l2,2.5L379.7,348.2L379.7,348.2z M379.9,337.8l-5-1.6l3.2,4.1
		L379.9,337.8z"/>
	<path id="XMLID_89_" class="st5" d="M141,347.9l-14.3,6.3l-2.6-3.3l5.9-7.7l-8.8,3.9l-2.6-3.3l9.6-12.3l2.4,3.1l-6.7,7.9l9.6-4.2
		l2.3,3l-6.5,8.1l9.3-4.5L141,347.9L141,347.9z M143.6,371.7l-2.7-2.6l4.7-4.8l-3.7-3.6l-4.7,4.8l-2.7-2.6l10.5-10.9l2.7,2.6l-3.8,4
		l3.7,3.6l3.8-4l2.7,2.6L143.6,371.7L143.6,371.7z M166.2,379.7c-1.4,2-3.1,3.2-5,3.5c-1.9,0.4-3.7-0.1-5.6-1.5
		c-1.8-1.3-2.9-3-3.1-4.9c-0.2-1.9,0.4-3.8,1.8-5.8c1.4-2,3.1-3.1,5-3.5c1.9-0.4,3.7,0.1,5.6,1.4c1.8,1.3,2.9,3,3.1,4.9
		C168.2,375.8,167.6,377.7,166.2,379.7L166.2,379.7z M163,377.4c0.5-0.7,0.9-1.4,1.1-2c0.2-0.6,0.3-1.2,0.3-1.7c0-0.5-0.1-1-0.4-1.4
		c-0.4-0.8-1.2-1.3-2-1.5c-0.5-0.1-1-0.1-1.4,0.1c-0.6,0.2-1.1,0.5-1.5,0.8c-0.5,0.4-1.1,1-1.6,1.7c-0.5,0.8-0.9,1.4-1.1,2
		c-0.2,0.5-0.3,1.1-0.3,1.7c0,0.5,0.1,1,0.4,1.4c0.2,0.4,0.5,0.7,0.9,1c0.4,0.3,0.8,0.4,1.2,0.5c0.5,0.1,0.9,0.1,1.4-0.1
		c0.5-0.2,1.1-0.4,1.5-0.8C161.9,378.7,162.4,378.1,163,377.4L163,377.4z M203.1,389.6l-9.2,12.6l-3.9-1.6l1.3-9.6l-5.7,7.8
		l-3.9-1.6l2.1-15.5l3.7,1.5l-1.9,10.2l6.2-8.4l3.5,1.4l-1.6,10.3l5.8-8.6L203.1,389.6L203.1,389.6z M203.3,405.5l8.6-13.4l4,1
		l1.3,15.9l-3.8-0.9l-0.2-3.2l-4.6-1.1l-1.7,2.8L203.3,405.5L203.3,405.5z M213.2,401.9l-0.3-5.2l-2.7,4.5L213.2,401.9L213.2,401.9z
		 M237.4,412.1l-3.6-0.5l-4.3-11.3l-1.5,10.4l-3.4-0.5l2.1-15l4.6,0.6l3.6,9.3l1.2-8.6l3.4,0.5L237.4,412.1z M249.5,412.4l-0.4-12.2
		l-4.5,0.1l-0.1-2.9l12.7-0.4l0.1,2.9l-4.5,0.2l0.4,12.2L249.5,412.4L249.5,412.4z M269.9,411.3c-1.1,0.2-2.2,0.2-3.1,0.1
		c-0.9-0.1-1.7-0.3-2.5-0.5l-0.5-3.6l0.3,0c0.8,0.5,1.7,0.9,2.7,1.1c1,0.2,1.9,0.3,2.7,0.1c0.2,0,0.5-0.1,0.8-0.2
		c0.3-0.1,0.6-0.2,0.8-0.3c0.2-0.1,0.4-0.3,0.6-0.6c0.2-0.3,0.2-0.6,0.2-0.8c0-0.4-0.3-0.7-0.6-0.8c-0.3-0.2-0.7-0.3-1.1-0.4
		c-0.6-0.1-1.1-0.1-1.7-0.2c-0.6,0-1.1-0.1-1.7-0.2c-1.2-0.2-2.1-0.7-2.7-1.3c-0.6-0.6-1-1.5-1.1-2.5c-0.2-1.4,0.2-2.6,1.3-3.7
		c1.1-1,2.5-1.7,4.3-1.9c0.9-0.1,1.8-0.2,2.7-0.1c0.9,0.1,1.7,0.2,2.5,0.4l0.5,3.4l-0.3,0c-0.7-0.4-1.4-0.7-2.2-0.9
		c-1.1-0.3-2.3-0.3-3.4,0c-0.3,0.1-0.5,0.2-0.8,0.4c-0.2,0.1-0.4,0.3-0.5,0.6c-0.1,0.2-0.2,0.5-0.2,0.7c0,0.4,0.2,0.7,0.5,0.9
		c0.3,0.2,0.9,0.3,1.7,0.4l1.5,0.1c0.5,0,1,0.1,1.6,0.2c1.1,0.2,1.9,0.6,2.5,1.2c0.6,0.6,1,1.4,1.1,2.4c0.2,1.4-0.2,2.8-1.3,3.8
		C273.5,410.4,271.9,411.1,269.9,411.3L269.9,411.3z M298.7,404.6l-4.2-11.5l-4.2,1.5l-1-2.7l12-4.4l1,2.7l-4.2,1.5l4.2,11.5
		L298.7,404.6z M322.6,386.4c1.1,2.2,1.4,4.2,0.9,6c-0.5,1.8-1.8,3.3-3.8,4.3c-2,1-4,1.2-5.8,0.5c-1.8-0.7-3.3-2.1-4.3-4.2
		c-1.1-2.2-1.4-4.2-0.9-6c0.5-1.8,1.8-3.3,3.8-4.3c2-1,3.9-1.2,5.8-0.6C320,382.8,321.5,384.2,322.6,386.4z M319.1,388.2
		c-0.4-0.8-0.8-1.5-1.3-1.9c-0.4-0.4-0.9-0.8-1.4-1.1c-0.4-0.2-0.9-0.3-1.4-0.3c-0.4,0-0.9,0.1-1.3,0.3c-0.4,0.2-0.7,0.5-1,0.8
		c-0.3,0.4-0.5,0.8-0.6,1.3c-0.1,0.5-0.1,1.1,0,1.7c0.1,0.7,0.4,1.4,0.8,2.2c0.4,0.8,0.9,1.5,1.3,1.9c0.4,0.5,0.9,0.8,1.4,1
		c0.5,0.2,0.9,0.3,1.4,0.3c0.4,0,0.9-0.1,1.3-0.3c0.4-0.2,0.7-0.5,1-0.8c0.3-0.4,0.5-0.8,0.6-1.3c0.1-0.5,0.1-1.1,0-1.7
		C319.8,389.7,319.5,389,319.1,388.2L319.1,388.2z M349.9,371.2c0.5,0.6,0.8,1.2,0.9,1.8c0.1,0.6,0.1,1.2,0,1.8
		c-0.2,0.7-0.5,1.3-0.9,1.9c-0.4,0.6-1,1.2-1.8,1.9l-4.7,3.8l-9.5-11.8l4.2-3.4c0.9-0.7,1.6-1.2,2-1.5c0.5-0.3,1-0.5,1.6-0.6
		c0.6-0.1,1.2-0.1,1.7,0.1c0.5,0.2,1,0.6,1.4,1.1c0.5,0.6,0.7,1.2,0.8,1.9c0.1,0.7-0.1,1.3-0.4,1.9l0.1,0.1c0.8-0.4,1.7-0.6,2.5-0.5
		C348.5,370,349.2,370.4,349.9,371.2L349.9,371.2z M342.2,369.5c-0.2-0.2-0.4-0.4-0.6-0.5c-0.3-0.1-0.5-0.1-0.8-0.1
		c-0.3,0.1-0.6,0.2-0.8,0.4c-0.3,0.2-0.7,0.5-1.2,1l-0.2,0.2l2,2.5l0.4-0.3c0.5-0.4,0.9-0.7,1.1-0.9c0.2-0.2,0.4-0.4,0.5-0.7
		c0.1-0.3,0.2-0.6,0.1-0.9C342.5,370,342.4,369.7,342.2,369.5L342.2,369.5z M346.8,373.6c-0.3-0.4-0.6-0.6-0.9-0.7
		c-0.3-0.1-0.7-0.1-1,0.1c-0.3,0.1-0.6,0.3-0.8,0.5c-0.3,0.2-0.7,0.6-1.3,1l-0.5,0.4l2.4,2.9l0.2-0.1c0.8-0.6,1.3-1.1,1.6-1.3
		c0.3-0.2,0.5-0.6,0.7-0.9c0.2-0.3,0.2-0.6,0.2-1C347.2,374.2,347,373.9,346.8,373.6L346.8,373.6z M358.8,369.4l-10.5-10.9l7.4-7.1
		l2,2.1L353,358l1.8,1.9l4.3-4.1l2,2.1l-4.3,4.1l2.7,2.7l4.6-4.5l2,2.1L358.8,369.4L358.8,369.4z M378.6,347.7l-9.5-12.9l2.4-3.4
		l15.3,4.5l-2.2,3.2l-3.1-1l-2.7,3.9l2,2.5L378.6,347.7L378.6,347.7z M378.8,337.2l-5-1.6l3.2,4.1L378.8,337.2z"/>
	<path id="XMLID_92_" class="st6" d="M250,80c46.8,0,89.3,19.1,120.1,49.9C400.9,160.7,420,203.2,420,250v0
		c0,46.8-19.1,89.3-49.9,120.1C339.3,400.9,296.8,420,250,420h0c-46.8,0-89.3-19.1-120.1-49.9S80,296.8,80,250v0
		c0-46.8,19.1-89.3,49.9-120.1C160.7,99.1,203.2,80,250,80L250,80z M250,81.9L250,81.9c-46.3,0-88.3,18.9-118.8,49.3
		S81.9,203.7,81.9,250v0c0,46.3,18.9,88.3,49.3,118.8c30.5,30.5,72.5,49.3,118.8,49.3h0c46.3,0,88.3-18.9,118.8-49.3
		c30.5-30.5,49.3-72.5,49.3-118.8v0c0-46.3-18.9-88.3-49.3-118.8C338.3,100.7,296.3,81.9,250,81.9L250,81.9z"/>
	<path id="XMLID_98_" class="st7" d="M191.5,122.8L191.5,122.8L191.5,122.8l4.1-1.8l10.2,13l13.2,22.4l13,22l16.1,31.1l16.2,35l0,0
		l0,0l0,0l0,0l0,0l0,0l0,0h0v0l0,0c4.4,9.5,8.7,19.1,12.8,28.7l4,9.2l3.7,9l3.4,8.5l17.8,44.1l9.1,32.1l-5.6,2.6l0,0l0,0l-4,1.8
		l-10.2-13l-13.2-22.4l-13-22L253,292.2l-16.2-35l0,0l0,0l0,0l0,0l0,0l0,0l0,0v0v0c-16.2-35-29.4-67.5-37.7-91.6l-8.5-24.6
		l-3.2-16.2L191.5,122.8L191.5,122.8L191.5,122.8L191.5,122.8z M192.3,124.4L192.3,124.4L192.3,124.4c-3,1.4,0.5,16.8,8.6,40.4
		l8.3,24.1l13.2,32.4l16.1,35l0,0l0,0l0,0l0,0l0,0l0,0l0,0v0l0,0v0h0c16.1,35,32.2,66,45.1,88l12.7,21.5l9.4,12.6l3-1.4l4.6-2.1
		l-9.4-31.2l-17.4-43.2l-3.4-8.4l-3.7-8.9l-4-9.3l-4-9.3l-4.3-9.6l-4.5-9.8l0,0l0,0l0,0l0,0l0,0l0,0l0,0c-16.1-35-32.2-66-45.1-88
		l-12.7-21.5l-9.4-12.6L192.3,124.4L192.3,124.4z M238.6,256.4L238.6,256.4L238.6,256.4L238.6,256.4 M238.6,256.4L238.6,256.4
		 M236.8,257L236.8,257"/>
	<path id="XMLID_106_" class="st7" d="M238.9,110.3L238.9,110.3L238.9,110.3L238.9,110.3L238.9,110.3c0.6,0,1.1,0.1,1.6,0.4l0.4,0.3
		l0.4,0.4l0.4,0.5l2,2.4l2.1,5.3l2.1,7.7v0l0,0l0.9,3.3l0.9,3.7l0.9,4.1l0.9,4.1l0.9,4.5l0.9,4.9L258,177l4.4,34.5l3.2,38l0,0.1
		l0,0.1l0,0.2h0l3.2,38.3l1.3,34.9l-0.5,25.5l-0.5,25.9l-2.5,16.3l-4.4,0.5v0l-0.1,0l0.1,0l0,0h0l0,0l-0.1,0h0
		c-4.4,0.2-9.5-15.4-14.3-40.9l-4.6-25.1l-4.5-34.7l-3.2-38.3v0l0,0l0-0.2l0-0.2l0-0.1l0-0.1l0-0.2v0v0 M239,112.1L239,112.1
		L239,112.1L239,112.1L239,112.1L239,112.1L239,112.1L239,112.1L239,112.1z M239,112.1L239,112.1L239,112.1L239,112.1L239,112.1
		L239,112.1L239,112.1L239,112.1l-3.3,0.4l-1.9,15.6l-0.4,24.9l-0.5,25.4l1.3,34.8l3.2,38.3v0l0,0l0,0.2l0,0.2l0,0.1l0,0.1l0,0.2
		l3.2,38.3l4.5,34.6l4.6,24.9l4.5,24.5l4.5,15.1l3.3-0.2v0h0v0l0,0h0l0,0h0l0,0h0h0l0,0h0v0v0v0h0l3.3-0.4l1.9-15.6l0.4-24.9
		l0.5-25.4l-1.3-34.9l-3.2-38.3l0,0l0-0.2l0-0.2l-3.2-38.1l-4.4-34.4l-4.6-25l-0.9-4.8l-0.9-4.5l-0.9-4.1l-0.9-4.1l-0.9-3.7
		l-0.9-3.3h0l0,0l0,0l-2-7.5l-2-5.1l-1.8-2.2l-0.3-0.4l-0.3-0.3l-0.3-0.2l-0.2-0.1l-0.2-0.1L239,112.1L239,112.1z M239,112.1
		 M262,389.5 M235.5,251.7c-3.2-38.3-4.5-73.2-4-98.7l0.5-25.9l2.5-16.3l4.4-0.5v0l0.1,0l-0.1,0h0"/>
	<path id="XMLID_167_" class="st7" d="M287.7,114.8L287.7,114.8L287.7,114.8l4.3,1.2l-0.5,16.5l-4.3,25.6l-4.2,25.2l-7.7,34.2
		l-10.2,37.2h0l0,0.1c0,0,0,0.1,0,0.1v0l-10.2,37.2l-10.8,33.4l-9.2,23.8l-9.3,24.3l-7.9,14.5l-4.3-1.1h0l0,0l0,0l0,0l-4.3-1.2
		l0.5-16.5l4.3-25.6l4.2-25.2l7.7-34.2L236,247h0l0-0.1v0c0,0,0,0,0,0 M287.2,116.6L287.2,116.6L287.2,116.6
		c-3.3-0.8-10.4,13.2-19.4,36.5l-9.1,23.8L248,210.1l-10.1,37.1h0l0,0.1l0,0v0l0,0l0,0c0,0,0,0,0,0.1v0l-10.1,37.1l-7.7,34.1
		l-4.2,25.1l-4.1,24.6l-0.9,15.7l3.2,0.9v0l0,0h0v0c3.2,0.8,10.4-13.2,19.4-36.5l9.1-23.8l10.7-33.3l10.1-37.1h0c0-0.1,0-0.1,0-0.1
		c0,0,0,0,0,0v0l0,0l0,0h0c0,0,0,0,0-0.1v0l10.1-37.2l7.7-34.1l4.2-25.1l4.1-24.6l0.9-15.7L287.2,116.6L287.2,116.6z M265.1,254.8
		C265.1,254.8,265.1,254.8,265.1,254.8L265.1,254.8L265.1,254.8L265.1,254.8 M265.1,254.8 M265.1,254.8L265.1,254.8L265.1,254.8z
		 M265.1,254.8 M265.1,254.8L265.1,254.8L265.1,254.8L265.1,254.8C265.1,254.8,265.1,254.8,265.1,254.8L265.1,254.8L265.1,254.8
		 M265.1,254.8L265.1,254.8L265.1,254.8z M265.1,254.8L265.1,254.8L265.1,254.8z M265.1,254.8L265.1,254.8L265.1,254.8z
		 M265.1,254.8L265.1,254.8L265.1,254.8z M263.3,254.3L263.3,254.3L263.3,254.3L263.3,254.3L263.3,254.3L263.3,254.3L263.3,254.3
		L263.3,254.3z M263.3,254.3L263.3,254.3L263.3,254.3L263.3,254.3L263.3,254.3z M263.3,254.3L263.3,254.3L263.3,254.3z M263.3,254.3
		 M263.3,254.3L263.3,254.3 M263.3,254.3 M265.1,254.8L265.1,254.8 M265.1,254.8C265.1,254.8,265.1,254.8,265.1,254.8 M236,246.8
		L236,246.8L236,246.8l0-0.1v0l10.2-37.2l10.8-33.4l9.2-23.8l9.3-24.3l7.9-14.5l4.3,1.1h0l0,0L236,246.8z M236,246.8L236,246.8
		L236,246.8z M236,246.8L236,246.8L236,246.8z M236,246.8L236,246.8L236,246.8L236,246.8L236,246.8 M236,246.8
		C236,246.8,236,246.8,236,246.8L236,246.8z M236,246.8 M236,246.8 M236,246.8 M236,246.8L236,246.8L236,246.8z M236,246.8
		 M237.8,247.3L237.8,247.3L237.8,247.3z M237.8,247.3 M237.8,247.4L237.8,247.4L237.8,247.4z M237.8,247.4 M237.8,247.4
		 M237.8,247.4 M237.8,247.4 M237.8,247.4 M237.8,247.4L237.8,247.4L237.8,247.4z M237.8,247.3 M236,246.9"/>
	<path id="XMLID_178_" class="st7" d="M332,135.7L332,135.7L332,135.7L332,135.7c0,0,0.1,0.1,0.1,0.1c3.4,2.8-2.7,18-15.4,40.5
		c-12.6,22.2-31.5,51.7-53.8,83.2h0l0,0l0,0c0,0.1,0,0,0,0c0,0,0,0,0,0l0,0c-6.1,8.6-12.2,17-18.5,25.5
		c-5.8,7.8-11.6,15.4-17.6,23.1c-29.3,37.4-52.6,61.3-57.6,57.9l0,0l0,0l0,0l0,0l0,0l0,0l-0.1,0c-3.4-2.9,2.7-18.1,15.4-40.5
		c12.6-22.2,31.5-51.7,53.8-83.2c0.1-0.1,0,0,0,0l0,0l0,0c6.1-8.6,12.2-17,18.5-25.5c5.8-7.8,11.6-15.4,17.6-23.1
		C303.6,156.1,326.9,132.2,332,135.7 M330.9,137.2L330.9,137.2L330.9,137.2c-4.2-2.9-26.5,20.8-55.2,57.4
		c-5.9,7.6-11.8,15.3-17.5,23c-6.2,8.4-12.4,16.9-18.4,25.4c-0.1,0.1,0,0,0,0c0,0,0,0,0,0l0,0c-22.3,31.5-41.2,60.9-53.7,83.1
		c-12.3,21.7-18.5,36.1-15.9,38.1l0,0c4.1,2.9,26.4-20.8,55.2-57.5c5.6-7.2,11.5-14.9,17.5-23c6-8,12.1-16.5,18.4-25.4c0,0,0,0,0,0
		l0,0l0,0c22.3-31.5,41.2-60.9,53.7-83.1C327.3,153.7,333.6,139.2,330.9,137.2L330.9,137.2z M262.9,259.5L262.9,259.5 M262.9,259.5
		L262.9,259.5L262.9,259.5z M261.3,258.5L261.3,258.5L261.3,258.5z M261.3,258.5L261.3,258.5L261.3,258.5z M261.3,258.5
		 M169.1,365.9L169.1,365.9C169.1,365.9,169,365.9,169.1,365.9L169.1,365.9L169.1,365.9z M238.2,242.1L238.2,242.1L238.2,242.1
		L238.2,242.1C238.3,242.1,238.3,242.1,238.2,242.1L238.2,242.1 M239.8,243.2L239.8,243.2"/>
	<path id="XMLID_184_" class="st7" d="M366.5,170.5L366.5,170.5L366.5,170.5c0.8,1.2,0.4,3.2-1.1,5.6l-1.4,2.2l-2.3,2.8l-3.1,3.3
		l-15.9,16.8l-37.8,30.2l-45.7,31.6l-0.1,0l0,0c-8.6,6-17.3,11.8-26,17.6l-8.4,5.5l-8.2,5.2l-7.8,4.9l-40.4,25.2l-30.1,14.5
		l-3.5-5.1l0,0l0,0c-0.8-1.2-0.4-3.1,1.1-5.6l1.4-2.2l2.3-2.8l3.1-3.3l15.9-16.8l37.8-30.2l45.7-31.7l0,0l-0.2,0.1l0.2-0.1l0,0
		c8.6-6,17.3-11.8,26-17.6l8.4-5.5l8.2-5.2l7.8-4.9l40.4-25.2l30.1-14.5L366.5,170.5L366.5,170.5L366.5,170.5z M364.9,171.6
		L364.9,171.6c-2.9-4.1-32,10.5-71.5,35.1l-7.7,4.8l-8.2,5.2l-8.5,5.6l-8.5,5.6l-8.7,5.9l-8.8,6.1l0,0l0,0l0,0l0,0l0,0l0,0l0,0
		c-45.6,31.6-83.2,61.6-99.1,78.4l-3.1,3.2l-2.2,2.7l-1.3,2.1l-1.1,1.8l-0.4,1.2l0.4,0.6l0,0l0,0c2.9,4.1,32-10.5,71.5-35.1l7.7-4.8
		l8.2-5.2l8.5-5.6l8.5-5.6l8.7-5.9l8.8-6.1l0,0l0.1,0l0,0l0,0l0,0l0,0c45.6-31.6,83.2-61.6,99-78.4l3.1-3.2l2.2-2.7l1.3-2.1l1.1-1.8
		l0.4-1.2L364.9,171.6L364.9,171.6L364.9,171.6z M259.1,263.2L259.1,263.2L259.1,263.2L259.1,263.2L259.1,263.2 M258.1,261.7
		L258.1,261.7L258.1,261.7L258.1,261.7C258.1,261.7,258.1,261.7,258.1,261.7L258.1,261.7z M243,240L243,240L243,240"/>
	<path id="XMLID_187_" class="st7" d="M386.9,215.1L386.9,215.1L386.9,215.1l1.1,4.3l-14.5,7.8l-24.3,9.1l-23.9,8.9l-33.5,10.4
		l-37.3,9.8l0,0l-0.1,0l0,0h0l-0.1,0l0,0l0,0v0c-10.1,2.7-20.3,5.2-30.5,7.6l-9.8,2.3l-9.5,2.1l-9,1.9l-46.6,9.8l-33.2,3.3l-1.6-6
		l0,0l0,0l-1.1-4.3l14.5-7.8l24.3-9.1l23.9-8.9l33.5-10.4l37.3-9.8l0,0l0.1,0l0,0l0,0l0.1,0l0,0l0,0v0c10.1-2.7,20.3-5.2,30.5-7.6
		l9.8-2.3l9.5-2.1l9-1.9l46.6-9.8l33.2-3.3L386.9,215.1L386.9,215.1z M385.2,215.5L385.2,215.5l-1.3-4.9l-32.3,3.8L306,224l-8.9,1.9
		l-9.5,2.1l-9.9,2.3l-9.9,2.4l-10.2,2.5l-10.4,2.7l0,0l-0.1,0l0,0l0,0l-0.1,0l0,0l0,0v0c-37.2,9.8-70.6,20.2-94.5,29.1l-23.4,8.7
		l-14.1,7l0.8,3.2v0l1.3,4.9l32.3-3.8l45.5-9.6l8.9-1.9l9.5-2.1l9.9-2.3l9.9-2.4l10.2-2.5l10.4-2.7l0,0l0.1,0l0,0l0,0l0.1,0l0,0l0,0
		h0c37.2-9.8,70.6-20.2,94.5-29.1l23.4-8.7l14.1-7L385.2,215.5z"/>
	<path id="XMLID_198_" class="st7" d="M390.9,263.9C390.9,263.9,390.9,263.9,390.9,263.9l-0.2,1.5l-1.6,1.2l-2.8,0.9l-2.5,0.8
		l-3.6,0.7l-4.6,0.5l-23.1,2.6l-48.1-1.2l-55.1-5.1c0.2,0,0.3,0-0.6,0l0,0l-38.3-3.6l-34.6-4.8l-25-4.9l-25.4-5l-15.6-5.3l0.3-4.4v0
		v0v0 M389.1,263.7L389.1,263.7L389.1,263.7C389.1,263.7,389.1,263.8,389.1,263.7L389.1,263.7l0.2-3.4l-15-4.6l-24.5-4.8l-24.9-4.9
		l-34.6-4.8l-38.2-3.6v0l-1.5-0.1l2,0.2l-0.8-0.1l-55.1-5.1l-48.1-1.2l-23,2.6l-4.4,0.5l-3.5,0.6l-2.4,0.8l-2.1,0.7l-1.1,0.7
		l-0.1,0.7v0l-0.2,3.3l15,4.6l24.5,4.8l24.9,4.9l34.6,4.8L249,264v0l1.5,0.1l-2-0.2l0.8,0.1l55.1,5.1l48.1,1.2l23-2.6l4.4-0.5
		l3.5-0.6l2.4-0.8l2.1-0.7l1.1-0.7L389.1,263.7L389.1,263.7z M389.1,263.7L389.1,263.7 M110.1,237.8
		C110.1,237.8,110.2,237.8,110.1,237.8c0-0.1,0-0.1,0-0.1l0.2-1.5l1.6-1.2l2.8-0.9l2.5-0.8l3.6-0.7l4.6-0.5l23-2.6l48.1,1.2
		l55.1,5.1c-0.2,0-0.1,0,0.7,0l0,0l38.3,3.6l34.6,4.8l25,4.9l25.5,5l15.6,5.3l-0.3,4.4c0,0,0,0,0,0.1v0 M112,237.9L112,237.9
		 M112,237.9L112,237.9 M112,237.9L112,237.9L112,237.9z M112,237.9L112,237.9L112,237.9z M251.6,235.8L251.6,235.8L251.6,235.8z
		 M389.1,263.7L389.1,263.7L389.1,263.7"/>
	<path id="XMLID_209_" class="st7" d="M378,311.1L378,311.1L378,311.1z M378,311.1L378,311.1L378,311.1z M378,311.1 M378,311.1
		C378,311.1,378,311.1,378,311.1L378,311.1l-0.7,1.4l-1.9,0.6l-2.9-0.1l-2.6-0.1l-3.6-0.6l-4.4-1.1l-22.5-5.4l-45-17.7l-50.2-23.8h0
		l0,0l0,0l0,0l0,0l-9.8-4.6l-9.5-4.6l-9-4.5l-9-4.5l-8.6-4.5l-8.2-4.4l-41.9-22.4l-27.5-18.8l2.5-5.6c0,0,0,0,0,0l0-0.1v0
		c0.7-1.3,2.5-1.9,5.4-1.9l2.6,0.1l3.6,0.6l4.4,1.1l22.5,5.4l45,17.7l50.2,23.8h0l0,0l0,0l0,0l0,0l9.8,4.6l9.5,4.6l9,4.5l9,4.5
		l8.6,4.5l8.2,4.4l41.9,22.4l27.5,18.8L378,311.1L378,311.1z M376.3,310.4L376.3,310.4L376.3,310.4L376.3,310.4
		c2.1-4.6-25.1-22.5-66.1-44.4l-8-4.3l-8.6-4.5l-9.1-4.6l-9.1-4.6l-9.4-4.6l-9.7-4.6l-0.1,0l0,0l0,0v0
		c-50.1-23.7-95-41.3-117.4-46.7l-4.3-1l-3.5-0.6l-2.5-0.1l-2.2-0.1l-1.3,0.3l-0.3,0.6l0,0v0c-2.1,4.6,25.1,22.5,66.1,44.4l8,4.3
		l8.6,4.5l9.1,4.6l9.1,4.6l9.4,4.6l9.7,4.6l0.1,0l0,0l0,0v0c50.1,23.7,95,41.3,117.4,46.7l4.3,1l3.5,0.6l2.5,0.1l2.1,0.1l1.3-0.3
		L376.3,310.4L376.3,310.4z M376.3,310.4L376.3,310.4 M376.3,310.4L376.3,310.4 M123.1,190.5L123.1,190.5L123.1,190.5z M123.1,190.5
		L123.1,190.5L123.1,190.5z M123.1,190.5"/>
	<path id="XMLID_213_" class="st7" d="M349.6,351.1L349.6,351.1L349.6,351.1c-1.1,1.1-3,1-5.8-0.1c-2.4-1-5.6-2.8-9.4-5.3
		c-19.3-12.8-55.6-44.8-94.6-84.3l0,0c0,0,0,0,0,0c-27.1-27.4-50.6-53.5-66.6-73.3c-16.3-20.2-24.9-34.4-21.7-37.5l0,0l0,0l0,0l0,0
		c1.1-1.1,3-1,5.8,0.1c2.4,1,5.6,2.8,9.4,5.3c19.3,12.8,55.6,44.8,94.7,84.3l0,0l0,0c6.1,6.2,12.1,12.4,18.1,18.7
		c5.6,5.9,11.2,11.9,16.7,17.9c27.2,29.8,46.9,54.5,52.6,66.4h0l0,0v0c0.2,0.5,0.5,1,0.7,1.5c0.2,0.5,0.4,0.9,0.5,1.3
		C350.7,348.4,350.6,350.1,349.6,351.1z M348.3,349.8L348.3,349.8L348.3,349.8c0.4-0.4,0.3-1.5-0.3-3.2c-0.1-0.4-0.3-0.8-0.5-1.2
		c-0.2-0.4-0.4-0.9-0.6-1.4l0,0v0c-5.7-11.7-25.2-36.3-52.3-65.9c-5.5-6-11-11.9-16.6-17.8c-6-6.3-12-12.5-18.1-18.6h0l0,0l0,0
		c-39-39.5-75.1-71.4-94.4-84.1c-3.7-2.4-6.8-4.2-9.1-5.1c-2-0.8-3.3-1-3.8-0.5l0,0l0,0l0,0h0c-2.4,2.4,6.2,15.6,21.9,35
		c16,19.8,39.4,45.8,66.5,73.2l0,0c0,0,0,0,0,0v0c0,0,0,0,0,0l0,0c39,39.5,75.1,71.4,94.4,84.1c3.7,2.4,6.8,4.2,9.1,5.1
		C346.6,350.1,347.8,350.3,348.3,349.8z M241.1,260.1"/>
	<path id="XMLID_218_" class="st8" d="M350.7,151.6L350.7,151.6l0.4,0.4l0.2,0.5l0.1,0.6l0.1,0.5l0,0.6l-0.1,0.7l-0.5,3l-2.7,5
		l-4.6,6.6l0,0l0,0l-1.9,2.8l-2.3,3.1l-2.6,3.4l-2.6,3.4l-2.9,3.6l-3.1,3.8l-16.2,19.6l-23.6,25.5l-27.2,26.9h0l0,0h0l-5.1,5l-5,4.9
		l-4.9,4.7l-4.9,4.7l-4.8,4.6l-4.7,4.4l-24.4,22.7l-21.5,18.2L171.1,341h0l0,0l-1.5,1l-1.4,1l-1.4,0.9l-1.4,0.9l-1.3,0.8l-1.2,0.7
		l-6.5,3.9l-4.4,1.4l-1.7-1.7h0l0,0l0,0l-0.4-0.4l-0.2-0.6l-0.1-0.7l-0.1-0.6l0.1-0.7l0.2-0.8l0.8-3.6l3.6-6.1l5.8-8l0,0l2.1-2.8
		l2.4-3.1l2.7-3.3l2.7-3.4l2.9-3.5l3.1-3.7l16.1-19.1l22.4-24.2l25.6-25.4l0,0l0,0h0l6.1-6.1l6.1-5.9l5.9-5.6l5.9-5.7l5.8-5.4
		l5.6-5.2l29-26.6l24.3-19.5l12.5-6.7l0,0l0,0l0,0l0,0l0,0h0v0l0,0l0,0v0h0h0v0l0,0l0,0v0 M349.4,152.9L349.4,152.9L349.4,152.9
		c-0.5-0.5-1.9-0.3-4.1,0.6l-0.5,0.2l-0.5,0.2l-0.6,0.3l-0.6,0.3l-0.6,0.3l-0.6,0.3l0,0l0.3-0.1l-0.3,0.1l0,0
		c-12.4,6.6-36.6,26.1-65.4,52.5l-5.6,5.2l-5.8,5.4l-5.9,5.6l-5.9,5.7l-6,5.9l-6.1,6l0,0h0l-25.6,25.3l-22.4,24.1l-16.1,19.1
		l-3.2,3.8l-2.9,3.5l-2.6,3.2l-2.6,3.3l-2.4,3.1l-2.1,2.9l0,0h0l-5.7,7.8l-3.5,5.9l-0.8,3.3l-0.1,0.6l0,0.5l0,0.4l0,0.3l0.1,0.2
		l0.1,0.1l0,0l0,0v0c1,1,4.7-0.4,10.4-3.9l1.2-0.7l1.3-0.8l1.3-0.9l1.3-0.9l1.4-1l1.5-1.1h0l0,0v0l14.6-10.4l21.5-18.1l24.3-22.6
		l4.7-4.4l4.8-4.6l4.9-4.7l4.9-4.7l5-4.9l5-5v0l0,0h0l27.1-26.8l23.5-25.5l16.2-19.6l3.2-3.8l2.9-3.6l2.5-3.3l2.5-3.3l2.3-3.1
		l1.9-2.8h0l0,0l0,0l4.4-6.4l2.6-4.8l0.5-2.7l0.1-0.5l0-0.4l0-0.3l0-0.2l-0.1-0.2L349.4,152.9L349.4,152.9z M350.7,151.6
		L350.7,151.6 M341.3,153.4c0.6-0.3,1.2-0.6,1.7-0.9l0.6-0.3l0.5-0.2l0.5-0.2l2.9-1.2l2.1-0.1l1.1,1.1"/>
	<path id="XMLID_222_" class="st8" d="M377,192.7L377,192.7l-1.4-3l-15.3,3.5l-23.6,8.1l-24.1,8.3l-32.4,13.2l-35,16.1l0,0l0,0l0,0
		l0,0l0,0l0,0l0,0v0c-35,16.1-66.1,32.1-88,45l-21.5,12.7l-12.6,9.4l1.4,3 M378.6,191.9L378.6,191.9L378.6,191.9l2.6,5.6L353.5,216
		l-42.2,22l-8.1,4.2l-8.7,4.4l-9.1,4.4l-9,4.4l-9.5,4.5l-9.9,4.6l0,0l0,0l0,0l0,0l0,0l0,0l0,0v0c-35.1,16.1-67.5,29.3-91.7,37.6
		l-24.6,8.4l-16.2,3.2l-1.9-4v0l0,0l0,0l0,0l-1.8-4l13-10.2l22.4-13.2l22-12.9l31.2-16.1l35-16.1l0,0l0,0l0,0l0,0l0,0l0,0l0,0
		c35.1-16.1,67.5-29.3,91.6-37.6l24.6-8.4l16.2-3.2L378.6,191.9L378.6,191.9L378.6,191.9z M124.1,309l1.4,3l15.3-3.5l23.6-8.1
		l24.1-8.3l32.4-13.2l35-16.1l0,0l0,0l0,0l0,0l0,0l0,0l0,0v0c9.5-4.4,19-8.9,28.4-13.4l9.1-4.4l8.7-4.4l8.1-4.2l41.3-21.5l27.4-17.6
		l-2.1-4.6"/>
	<path id="XMLID_225_" class="st8" d="M214.7,114.5L214.7,114.5L214.7,114.5l1.5-0.4l1.7,1l1.8,2.3l1.6,2.1l1.9,3.1l2,4.1l10.4,20.7
		l15.5,45.8l14.1,53.7l0,0l0,0l0,0l0,0v0c2.7,10.1,5.2,20.3,7.7,30.5l2.3,9.8l2.1,9.5l1.9,9l9.9,46.6l3.4,33.2l-6,1.6h0v0l-1.5,0.4
		l-1.7-1l-1.8-2.3l-1.6-2L278,379l-2-4.1l-10.4-20.7l-15.5-45.8L236,254.7l0-0.1l0-0.1v0c-9.8-37.3-17.2-71.5-21.2-96.7l-4.1-25.6
		l-0.4-16.5L214.7,114.5L214.7,114.5L214.7,114.5L214.7,114.5z M215.1,116.2L215.1,116.2L215.1,116.2L215.1,116.2L215.1,116.2
		c-3.2,1-2.4,16.7,1.5,41.3l4,25.1l7.4,34.2l9.8,37.2l0,0l0,0.1l0,0l0,0l14.1,53.6l15.4,45.7l10.3,20.6l2,4l1.8,3l1.6,2l1.3,1.7
		l1,0.8l0.7-0.2v0l0,0v0l4.9-1.3l-3.8-32.3l-9.6-45.5l-1.9-8.9l-2.1-9.5L271,278l-2.4-9.9l-2.6-10.2l-2.7-10.4l0,0l0-0.1l0,0l0,0
		l-14.1-53.6l-15.4-45.7l-10.3-20.6l-2-4l-1.8-3l-1.5-2l-1.3-1.7l-1-0.8L215.1,116.2L215.1,116.2L215.1,116.2z"/>
	<path id="XMLID_229_" class="st8" d="M263.5,110.4L263.5,110.4L263.5,110.4l1.5,0.2l1.2,1.6l0.9,2.8l0.8,2.5l0.7,3.6l0.5,4.5
		l2.6,23.1l-1.1,48.2l-5.1,55.2c0-0.2,0-0.3,0,0.5l0,0l-3.5,38.3l-4.8,34.6l-4.9,25l-5,25.5l-5.3,15.6l-4.4-0.3v0c0,0,0,0-0.1,0h0
		l0,0h0l-4.4-0.5l-2.3-16.3l-0.2-25.9l-0.2-25.4l1.6-34.8l3.5-38.3l0-0.5l0.1-0.6l-0.2,1.9l0.1-1.6l0,0l3.5-38.3l4.8-34.6l4.9-25
		l5-25.5l5.3-15.6L263.5,110.4C263.5,110.4,263.4,110.4,263.5,110.4L263.5,110.4L263.5,110.4z M263.3,112.2L263.3,112.2L263.3,112.2
		z M265.4,115.6l-0.7-2.1l-0.7-1.1l-0.7-0.1h0L260,112l-4.6,15l-4.8,24.5l-4.9,24.9l-4.8,34.6l-3.5,38.2h0l-0.1,1.4l0.2-1.9
		l-0.1,0.9l0,0.5l-3.5,38.1l-1.6,34.8l0.2,25.4l0.2,24.9l1.8,15.6l3.3,0.4h0l3.3,0.2l4.6-15l4.8-24.5l4.9-24.9l4.8-34.6l3.5-38.2h0
		l0.1-1.4l-0.2,1.9l0.1-0.9l5.1-55.1l1.1-48.1l-2.6-23l-0.5-4.4l-0.6-3.5L265.4,115.6L265.4,115.6z"/>
	<path id="XMLID_238_" class="st8" d="M310,125L310,125C310,125,310,125,310,125L310,125L310,125c-3.1-1.4-12.6,11.2-25.4,32.5
		l-13.1,21.8l-16.4,30.9l-16.4,34.8l0,0.1l0,0l0,0l0,0l0,0l0,0l0,0l-16.4,34.8l-13.5,32.3l-8.5,24l-8.3,23.5l-3.7,15.3l3,1.5v0l0,0
		c4.6,2.1,22.4-25.1,44.3-66.2l4.3-8l4.4-8.6l4.6-9.1l4.5-9.1l4.6-9.5l4.6-9.7l0-0.1l0,0l0,0l0,0l0,0l0,0l0,0l16.4-34.8l13.5-32.3
		l8.5-24l8.3-23.5l3.7-15.3L310,125L310,125z M310,125L310,125 M309.9,125 M310.7,123.3L310.7,123.3L310.7,123.3L310.7,123.3
		L310.7,123.3L310.7,123.3c4,1.9,0.6,18.1-8,42.6l-8.5,24l-13.5,32.3l-16.5,34.9v0l0,0h0 M310.7,123.3L310.7,123.3 M264.2,257.2
		L264.2,257.2l0,0.1L264.2,257.2l-0.1,0.1l0,0l-4.6,9.8l-4.6,9.5l-4.5,9l-4.5,9l-4.5,8.6l-4.3,8.2l-22.3,41.9L196,380.8l-5.6-2.5
		c0,0,0,0,0,0l-0.1,0l0,0v0h0c-4-1.9-0.6-18.1,8.1-42.6l8.5-24l13.5-32.3l16.5-34.9l0-0.1l0,0l0,0l0,0l0,0l0,0l0,0l16.5-34.9
		l16.4-31l13.2-21.9l13.4-22.3l10.3-12.9l4,1.9 M190.4,378.3L190.4,378.3L190.4,378.3z M191.1,376.6L191.1,376.6"/>
	<path id="XMLID_246_" class="st8" d="M391.1,239.3L391.1,239.3C391.1,239.3,391.1,239.3,391.1,239.3l0.1,1.5l-1.3,1.4l-2.6,1.4
		l-2.3,1.2l-3.4,1.3l-4.4,1.3l-22.3,6.6l-47.7,7.2l-55.3,4.5h0l-0.4,0l-10.7,0.9l-10.5,0.7l-10.1,0.6l-10.1,0.6l-9.7,0.4l-9.2,0.3
		l-47.4,1.6l-33.2-2.5l-0.5-6.1v0v0l0-0.1l-0.1-1.5l1.3-1.5l2.6-1.4l2.3-1.2l3.4-1.3l4.4-1.3l22.3-6.6l47.7-7.2l55.3-4.5h0h0
		L391.1,239.3z M389.2,239.4 M389.2,239.4C389.2,239.5,389.2,239.5,389.2,239.4l-0.4-5l-32.4-1.9l-46.4,1.5l-9.1,0.3l-9.7,0.4
		l-10.1,0.6l-10,0.6l-10.5,0.7l-10.8,0.9l0,0l-0.2,0l-0.2,0h0l-55.2,4.5l-47.6,7.2l-22.2,6.6l-4.3,1.3l-3.3,1.2l-2.2,1.2l-1.9,1
		l-1,0.9l0,0.7v0h0v0l0.4,5l32.4,1.9l46.4-1.5l9.1-0.3l9.7-0.4l10.1-0.6l10-0.6l10.5-0.7l10.8-0.9l0,0l0.2,0l0.2,0h0l55.2-4.5
		l47.6-7.2l22.1-6.6l4.3-1.3l3.3-1.2l2.2-1.2l1.9-1l1-0.9L389.2,239.4L389.2,239.4L389.2,239.4z M251.8,265.8L251.8,265.8
		 M111.9,262.2L111.9,262.2L111.9,262.2z M111.9,262.2 M249.3,235.8c0.1,0,0.3,0,0.4,0l10.7-0.9l10.5-0.7l10.1-0.6l10.1-0.6l9.7-0.4
		l9.2-0.3l47.4-1.6l33.2,2.5l0.5,6.1"/>
	<path id="XMLID_249_" class="st8" d="M386.5,288.1L386.5,288.1L386.5,288.1l-0.4,1.5l-1.7,0.9l-2.9,0.4l-2.6,0.4l-3.6,0l-4.5-0.3
		l-23.1-1.4l-47.4-9.6l-53.6-14.7l0,0h0l0,0l-0.1,0h0l-37.2-10.2l-33.3-10.8l-23.8-9.2l-24.2-9.4l-14.5-7.9l1.1-4.3v0l0,0l0,0l0,0
		l0.4-1.4l1.7-0.9l2.9-0.4l2.6-0.4l3.6,0l4.5,0.3l23.1,1.4l47.4,9.6l53.6,14.7l0,0l0,0l0,0l0.1,0h0l37.2,10.2l33.3,10.8l23.8,9.2
		l24.2,9.3l14.5,7.9L386.5,288.1L386.5,288.1L386.5,288.1z M384.7,287.6L384.7,287.6L384.7,287.6L384.7,287.6
		c0.8-3.3-13.2-10.4-36.4-19.4l-23.7-9.2l-33.3-10.8l-37.1-10.2l-0.1,0v0l-53.5-14.7l-47.2-9.5l-23-1.4l-4.4-0.3l-3.5,0l-2.5,0.4
		l-2.1,0.3l-1.2,0.5l-0.2,0.7l0,0l0,0c-0.8,3.2,13.2,10.4,36.4,19.4l23.7,9.2l33.3,10.8l37.1,10.2l0.1,0v0l53.5,14.7l47.2,9.5
		l23,1.4l4.4,0.3l3.5,0l2.5-0.4l2.1-0.3l1.2-0.5L384.7,287.6L384.7,287.6z"/>
	<path id="XMLID_263_" class="st8" d="M365.6,332.4L365.6,332.4L365.6,332.4L365.6,332.4L365.6,332.4L365.6,332.4l-0.1,0.1
		c-0.9,1.2-2.8,1.4-5.6,0.8l-2.6-0.5l-3.4-1.2l-4.2-1.8l-21.3-9.2l-41.3-25.2l-45.3-32.2h0v0v0v0h0h0h0 M364,331.3L364,331.3
		L364,331.3L364,331.3z M360.2,331.5l2.1,0.4l1.3,0l0.4-0.5v0l0,0l0,0l0,0l0,0c1.8-2.8-8.9-14.3-27.6-30.7l-19.2-16.7l-27.6-21.5
		l-31.4-22.3v0l0,0l0,0l0,0l0,0l0,0l-31.4-22.3l-29.4-18.9l-22.1-12.6l-21.7-12.3l-14.4-6.3l-2,2.7l0,0l0,0l0,0l0,0v0l0,0
		c-1.8,2.8,8.9,14.3,27.6,30.7l19.2,16.7l27.6,21.5l31.4,22.3l0,0l0.1,0.1l-0.1-0.1l0.1,0.1l0,0l45.3,32.1l41.1,25.1l21.2,9.2
		l4.1,1.8l3.3,1.2L360.2,331.5L360.2,331.5z M241.8,263.1 M241.8,263.1L241.8,263.1 M241.8,263.1L241.8,263.1l-31.5-22.4l-27.6-21.6
		l-19.2-16.8l-19.6-17.1L133,172.9l2.5-3.7v0l0,0l0,0l0.1-0.1c2.8-3.4,18,2.8,40.4,15.5l22.2,12.6l29.5,19l31.5,22.3l0,0l0.1,0.1
		l-0.1-0.1l0,0l0,0l0,0l31.5,22.3l27.7,21.6l19.2,16.8l19.6,17.1l10.9,12.4l-2.5,3.7v0 M135.5,169.3 M137,170.3L137,170.3
		 M137,170.3L137,170.3 M259.2,238.5L259.2,238.5L259.2,238.5z M258.2,240L258.2,240L258.2,240L258.2,240L258.2,240z M258.2,240
		L258.2,240L258.2,240z M258.2,240"/>
	<path id="XMLID_268_" class="st8" d="M330.7,366.8L330.7,366.8L330.7,366.8c-1.2,0.8-3.2,0.4-5.6-1.1c-2.2-1.4-5-3.7-8.3-6.8
		c-16.8-16-47-53.8-78.6-99.5c0,0,0.1,0.2,0-0.1h0c-21.9-31.7-40.5-61.5-52.9-83.8c-12.6-22.8-18.5-38.2-14.9-40.7l0,0l0,0l0,0l0,0
		c3.7-2.5,16,8.5,32.8,28.3c16.5,19.4,37.7,47.3,59.7,79.1l0,0.1l0,0l0,0v0c4.3,6.3,8.6,12.5,12.8,18.9c4,6,8,12.1,11.9,18.1
		c19.5,30.3,34.1,56.1,40.6,71.5l0,0c0.5,1.2,1,2.3,1.3,3.4c0.4,1.1,0.8,2.1,1.1,3C332.3,362.3,332.4,365.7,330.7,366.8L330.7,366.8
		L330.7,366.8z M329.7,365.3L329.7,365.3L329.7,365.3c0.9-0.6,0.6-3.3-0.8-7.5c-0.3-0.9-0.6-1.9-1-2.9c-0.4-1.1-0.8-2.2-1.3-3.3l0,0
		c-6.4-15.3-21-41-40.4-71.3c-3.9-6.1-7.8-12.1-11.8-18.1c-4.2-6.3-8.5-12.6-12.8-18.9v0l0,0v0l0-0.1
		c-21.9-31.7-43.1-59.5-59.6-78.9c-16.2-19-27.6-29.9-30.4-28l0,0v0l0,0l0,0c-2.7,1.9,3.4,16.4,15.4,38.3
		c12.3,22.3,30.9,52,52.8,83.7l0,0l0,0l0,0l0,0c31.5,45.6,61.6,83.3,78.3,99.2c3.2,3.1,5.9,5.3,8,6.6
		C327.8,365.3,329.1,365.7,329.7,365.3L329.7,365.3z M239.7,258.4L239.7,258.4 M239.7,258.3L239.7,258.3"/>
	
		<radialGradient id="XMLID_140_" cx="-0.1955" cy="-1.999690e-002" r="0.146" gradientTransform="matrix(920.7458 0 0 920.7458 428.2315 268.7512)" gradientUnits="userSpaceOnUse">
		<stop  offset="0" style="stop-color:#FFFFFF"/>
		<stop  offset="0.12" style="stop-color:#FFFFFF"/>
		<stop  offset="0.29" style="stop-color:#89C651"/>
		<stop  offset="0.42" style="stop-color:#2D6B3B"/>
		<stop  offset="0.599" style="stop-color:#1B3A25"/>
		<stop  offset="1" style="stop-color:#253426"/>
	</radialGradient>
	<path id="XMLID_285_" class="st9" d="M240.6,146.3c9-11.9,19.6-23.1,30.5-27.7c17.6-7.5,34.2,1.3,35.8,20.4
		c0.8,9.9-2.5,20.8-7.9,27.7c-7.9,10.1-22.5,17.7-30.6,24.4c-6,5-6.5,7.2-7.5,14.5c-0.7,5.4-1,10.9-0.8,16.6l-12.8,9
		c-0.2-8.7,0-17.4,0.7-25.6c0.4-5,1.1-9.2,2.1-12.4c1.8-5.6,5-8.7,12.4-14c7.5-5.4,17.6-11.6,23.8-17.4c5.5-5.2,10.8-12.6,12-20.3
		c0.9-5.6-0.6-11-3.9-14.3c-3-3-7.4-4.4-12.9-3.3c-3.7,0.8-7.3,2.6-10.3,5c-7.1,5.8-13.5,15.7-20.3,27.6
		C247.5,153.3,244,149.4,240.6,146.3L240.6,146.3z M233.9,259l3.3,4.3l-14.6,7.4c4.5,4.9,7.7,10.9,11.4,16.7
		c-4,1.5-6.7,2.6-10.8,4.1c-1.1-6-3.2-11.3-7.6-17.3L190,287.4c4.1,12.4,7.3,26.2-9.6,31.7c-13.9,4.5-25.4-0.6-34.5-9.2l-16.9,8.6
		l-3.3-4.3l16.4-8.3c-6.8-7.8-11.9-17.2-15.3-26.4c3.8-0.3,8-0.5,11.8-0.8c1.2,7.5,2.9,15.6,9.3,23.8l0.2,0.3l28-14.2
		c-4-11.6-6.9-23.8,9-28.9c9.6-3.1,23.8-1.8,33.9,7.1L233.9,259z M177.7,293.6l-25.9,13.2c6.8,6,15.8,8.7,23.2,6.3
		C183.1,310.5,180.9,302.6,177.7,293.6L177.7,293.6z M188.3,282.2l23.6-12c-5.5-4.6-14.4-7.6-22.4-5
		C183.6,267.1,185.5,273.9,188.3,282.2z M253.8,267.1l4.1-3.7l8.5,14.1c4.6-4.8,10.3-8.5,15.9-12.6c1.7,3.9,3.1,6.5,4.9,10.5
		c-5.9,1.5-11.1,4-16.7,8.8l14.9,24.6c12-5,25.6-9.2,32.3,7.3c5.5,13.5,1.3,25.4-6.7,35.1l9.8,16.2l-4.1,3.6l-9.5-15.7
		c-7.3,7.3-16.3,13.1-25.2,17.2c-0.5-3.8-1.1-7.9-1.6-11.7c7.4-1.7,15.4-4.1,23.1-11l0.3-0.2l-16.2-26.9
		c-11.3,4.8-23.2,8.6-29.5-6.8c-3.8-9.3-3.5-23.6,4.7-34.3L253.8,267.1L253.8,267.1z M292.4,320.6l15,24.9
		c5.5-7.2,7.5-16.4,4.6-23.6C308.8,314.1,301.1,316.8,292.4,320.6L292.4,320.6z M280.2,311l-13.7-22.7c-4.2,5.8-6.5,14.9-3.3,22.7
		C265.5,316.7,272.2,314.4,280.2,311L280.2,311z M262.7,240.6l-3.3-4.4l14.8-7.2c-4.4-5-7.6-11-11.1-16.9c4.1-1.4,6.8-2.5,10.8-3.9
		c1,6,3,11.4,7.3,17.4l25.9-12.6c-3.9-12.4-6.9-26.3,10.1-31.5c14-4.3,25.4,1,34.3,9.8l17-8.3l3.3,4.4l-16.5,8.1
		c6.7,7.9,11.6,17.4,14.9,26.6c-3.8,0.2-8,0.4-11.8,0.6c-1.1-7.5-2.7-15.7-8.9-24c-0.1-0.1-0.1-0.2-0.2-0.3L321.1,212
		c3.8,11.6,6.6,23.9-9.4,28.8c-9.6,2.9-23.8,1.4-33.8-7.7L262.7,240.6z M319.4,206.8l26.1-12.8c-6.7-6.1-15.7-8.9-23.1-6.6
		C314.3,189.9,316.4,197.8,319.4,206.8L319.4,206.8z M308.7,218l-23.8,11.7c5.4,4.7,14.3,7.8,22.3,5.3
		C313.1,233.2,311.4,226.4,308.7,218L308.7,218z M242.5,234.3l-4.1,3.6l-8.3-14.1c-4.7,4.8-10.4,8.4-16,12.4
		c-1.7-3.9-3.1-6.6-4.8-10.5c5.9-1.4,11.1-3.9,16.8-8.7l-14.6-24.8c-12.1,4.9-25.7,8.9-32.2-7.6c-5.3-13.6-1-25.4,7-35l-9.6-16.3
		l4.1-3.6l9.3,15.8c7.4-7.3,16.4-13,25.4-16.9c0.5,3.8,1,7.9,1.5,11.7c-7.4,1.7-15.4,3.9-23.2,10.8l-0.3,0.2l16,27.1
		c11.3-4.7,23.3-8.4,29.4,7.1c3.7,9.4,3.2,23.6-5,34.2L242.5,234.3z M204.5,180.4l-14.8-25.1c-5.6,7.2-7.7,16.3-4.8,23.6
		C187.9,186.8,195.6,184.1,204.5,180.4L204.5,180.4z M216.5,190.2l13.5,22.9c4.3-5.8,6.6-14.9,3.6-22.7
		C231.3,184.6,224.6,186.9,216.5,190.2L216.5,190.2z M352.1,244.4c11.7,9.1,22.8,19.9,27.4,30.8c7.3,17.7-1.8,34.2-20.8,35.6
		c-9.9,0.7-20.7-2.8-27.6-8.3c-10-8.1-17.4-22.7-24-30.9c-4.9-6.1-7.1-6.6-14.4-7.7c-5.4-0.8-10.9-1.1-16.6-1l-8.9-12.9
		c8.7-0.1,17.4,0.3,25.6,1c5,0.5,9.2,1.2,12.3,2.2c5.5,1.9,8.6,5.1,13.9,12.6c5.3,7.6,11.4,17.8,17.1,24.1
		c5.1,5.6,12.4,10.9,20.1,12.3c5.6,1,11-0.4,14.4-3.7c3-2.9,4.5-7.3,3.5-12.9c-0.7-3.7-2.5-7.4-4.9-10.4
		c-5.7-7.2-15.5-13.7-27.3-20.6C345,251.2,348.9,247.8,352.1,244.4L352.1,244.4z M254.2,354.8c-9.1,11.8-19.8,22.9-30.8,27.4
		c-17.7,7.3-34.2-1.7-35.6-20.7c-0.7-9.9,2.7-20.7,8.2-27.6c8-10,22.7-17.5,30.9-24.1c6.1-4.9,6.5-7.1,7.6-14.4
		c0.8-5.4,1.1-10.9,1-16.6c4.3-3,8.6-5.9,12.9-8.9c0.1,8.6-0.2,17.1-1,25.6c-0.5,5-1.2,9.2-2.2,12.4c-1.8,5.6-5.1,8.6-12.6,13.9
		c-7.6,5.3-17.8,11.4-24,17.1c-5.6,5.1-10.9,12.4-12.2,20.2c-0.9,5.6,0.5,11,3.8,14.4c2.9,3,7.3,4.5,12.9,3.4
		c3.7-0.7,7.4-2.5,10.4-4.9c7.2-5.8,13.7-15.6,20.6-27.3C247.4,347.7,250.8,351.6,254.2,354.8L254.2,354.8z M146.3,258.3
		c-12.1-8.6-23.7-18.8-28.7-29.6c-8-17.4,0.2-34.2,19.2-36.5c9.9-1.1,20.8,1.9,27.9,7.1c10.3,7.6,18.4,22,25.4,29.8
		c5.2,5.9,7.4,6.2,14.7,7c5.4,0.6,10.9,0.6,16.7,0.3L231,249c-8.7,0.5-17.4,0.5-25.7,0.1c-5-0.2-9.3-0.8-12.4-1.7
		c-5.6-1.6-8.8-4.7-14.4-12c-5.6-7.3-12.2-17.3-18.1-23.3c-5.3-5.4-12.9-10.4-20.7-11.4c-5.7-0.7-10.9,0.9-14.2,4.4
		c-2.9,3-4.2,7.5-2.9,13c0.9,3.6,2.8,7.3,5.3,10.1c6.1,6.9,16.1,13,28.2,19.4C153.1,251.2,149.3,254.8,146.3,258.3L146.3,258.3z"/>
	<path id="XMLID_302_" class="st10" d="M298.2,167.6c-1.6,1.9-3.3,3.6-5.2,5.3c-4-2.4-8.3-4.4-12.6-6.2c2.2-1.7,4.3-3.3,6-4.9
		l0.3-0.3C290.6,163.3,294.5,165.3,298.2,167.6L298.2,167.6z M252.6,153.5c-0.6,1-1.1,2-1.7,3c-1.1-1-2.2-2-3.2-3.1h0.1
		C249.4,153.3,251,153.4,252.6,153.5z M316.1,181.7c1.9,1.9,3.7,3.9,5.5,6c-3,1.1-4.3,3.1-4.7,5.6c-2.3-2.8-4.8-5.5-7.5-8
		C311.1,183.9,313.3,182.7,316.1,181.7L316.1,181.7z M331.1,201.1c0.9,1.6,1.8,3.1,2.6,4.7l-6.5,3.2c-0.8-1.6-1.7-3.2-2.6-4.7
		L331.1,201.1L331.1,201.1z M344.4,251.9c0,1.4-0.1,2.8-0.2,4.2c-0.8-0.5-1.6-1-2.5-1.5C342.6,253.7,343.5,252.8,344.4,251.9z
		 M335.9,289.8c-1.8,4-3.9,7.8-6.2,11.5c-1.9-1.7-3.6-3.5-5.2-5.4c2.4-4,4.6-8.3,6.3-12.6C332.5,285.7,334.2,287.9,335.9,289.8z
		 M317.7,316.6c-1.8,1.9-3.7,3.7-5.7,5.5c0-0.1,0-0.1-0.1-0.2c-1.2-2.9-3-4.4-5.2-4.8c2.5-2.2,4.9-4.6,7.2-7.1
		c1.3,1.6,2.5,3.7,3.5,6.2C317.6,316.3,317.7,316.5,317.7,316.6z M299.1,331.8c-1.5,1-3.1,1.9-4.6,2.7l-3.8-6.2
		c1.6-0.9,3.1-1.8,4.6-2.7L299.1,331.8L299.1,331.8z M246.2,346.6c-1.1,0-2.2,0-3.3-0.1c0.4-0.6,0.8-1.3,1.1-2
		C244.7,345.2,245.4,345.9,246.2,346.6z M209,338.5c-4-1.8-7.9-3.8-11.7-6.1c1.7-1.9,3.5-3.6,5.4-5.2c4.1,2.4,8.4,4.5,12.8,6.2
		C213.2,335.1,210.9,336.8,209,338.5z M180.3,319c-1.9-1.9-3.8-3.8-5.5-5.9c0.1,0,0.2-0.1,0.3-0.1c2.9-0.9,4.5-2.6,5.2-4.7
		c2.2,2.5,4.6,5,7,7.3C185.5,317,183.2,318.1,180.3,319C180.3,319,180.3,319,180.3,319z M165.2,300c-0.9-1.5-1.8-3.1-2.7-4.7
		l6.5-3.3c0.8,1.6,1.7,3.1,2.7,4.7L165.2,300z M151.2,253c-0.1-2.6-0.1-5.3,0.1-7.9c1.6,0.9,3.2,1.7,4.8,2.6
		C154.6,249.5,152.9,251.2,151.2,253L151.2,253z M159.4,211.1c1.7-3.9,3.7-7.7,6-11.4c2,1.5,3.8,3.2,5.5,5c-2.3,4-4.4,8.1-6.1,12.4
		c-1.4-1.7-2.8-3.4-4.4-4.9C160,211.8,159.7,211.5,159.4,211.1L159.4,211.1z M178.6,182.7c1.8-1.9,3.8-3.7,5.7-5.5
		c0.2,0.6,0.3,1.1,0.6,1.7c0.9,2.2,2.1,3.6,3.6,4.4c-2.3,2-4.5,4.2-6.6,6.5c-1.1-1.6-2-3.3-2.7-5.2C179,184,178.8,183.3,178.6,182.7
		z M197,167.8c1.5-0.9,3.1-1.9,4.6-2.7l3.7,6.3c-1.6,0.9-3.1,1.8-4.6,2.7L197,167.8z"/>
	<path id="XMLID_317_" class="st4" d="M94.9,262.3c0,0.4,0.1,0.8,0.3,0.9c0.2,0.2,0.5,0.3,1.1,0.5v0.7h-8.9v-0.7
		c0.6-0.1,0.9-0.3,1.1-0.5c0.2-0.2,0.3-0.5,0.3-0.9v-21.2c0-0.5-0.1-0.8-0.3-1c-0.2-0.2-0.5-0.3-1.1-0.5v-0.7h13.2v0.7
		c-0.4,0.1-0.6,0.2-0.8,0.4c-0.2,0.1-0.3,0.3-0.3,0.5c0,0.2,0.1,0.5,0.3,1c0,0.1,0.1,0.1,0.1,0.1l4.2,9.1l4.8-9.1
		c0.1-0.2,0.2-0.4,0.2-0.6c0.1-0.2,0.1-0.3,0.1-0.5c0-0.2-0.1-0.3-0.3-0.5c-0.2-0.2-0.5-0.3-0.8-0.4v-0.7h13.6v0.7
		c-0.6,0.1-0.9,0.3-1.1,0.5c-0.2,0.2-0.3,0.5-0.3,1v21.2c0,0.4,0.1,0.7,0.3,0.9c0.2,0.2,0.5,0.3,1.1,0.5v0.7h-9.8v-0.7
		c0.6-0.1,0.9-0.3,1.1-0.5c0.2-0.2,0.3-0.5,0.3-0.9v-15.2l-9.3,17.8l-9-17.8V262.3z M131.7,264.4v-0.7c0.5-0.1,0.9-0.3,1-0.4
		c0.2-0.2,0.2-0.5,0.2-1v-21.2c0-0.5-0.1-0.8-0.2-1c-0.2-0.2-0.5-0.3-1-0.5v-0.7H142v0.7c-0.6,0.1-0.9,0.3-1.1,0.5
		c-0.2,0.2-0.3,0.5-0.3,1v21.2c0,0.4,0.1,0.8,0.3,0.9c0.2,0.2,0.5,0.3,1.1,0.5v0.7H131.7L131.7,264.4z M175.9,258.4
		c0.5,0,0.8-0.1,1-0.2c0.2-0.1,0.4-0.5,0.5-1h0.7v8.4h-0.7c-0.1-0.5-0.3-0.8-0.5-1c-0.2-0.2-0.5-0.2-1-0.2h-25.7v-0.7
		c0.5-0.1,0.9-0.2,1-0.4c0.2-0.2,0.2-0.5,0.2-1v-21.2c0-0.5-0.1-0.8-0.2-1c-0.2-0.2-0.5-0.3-1-0.5v-0.7h10.3v0.7
		c-0.6,0.1-0.9,0.3-1.1,0.5c-0.2,0.2-0.3,0.5-0.3,1v17.3L175.9,258.4L175.9,258.4z M205.9,258.4c0.5,0,0.8-0.1,1-0.2
		c0.2-0.1,0.4-0.5,0.5-1h0.7v8.4h-0.7c-0.1-0.5-0.3-0.8-0.5-1c-0.2-0.1-0.5-0.2-1-0.2h-25.7v-0.7c0.5-0.1,0.9-0.3,1-0.4
		c0.2-0.2,0.2-0.5,0.2-1v-21.2c0-0.5-0.1-0.8-0.2-1c-0.2-0.2-0.5-0.3-1-0.5v-0.7h10.3v0.7c-0.6,0.1-0.9,0.3-1.1,0.5
		c-0.2,0.2-0.3,0.5-0.3,1v17.3L205.9,258.4L205.9,258.4z M212.4,264.4v-0.7c0.5-0.1,0.9-0.2,1-0.4c0.2-0.2,0.2-0.5,0.2-1v-21.2
		c0-0.5-0.1-0.8-0.2-1c-0.2-0.2-0.5-0.3-1-0.5v-0.7h10.3v0.7c-0.6,0.1-0.9,0.3-1.1,0.5c-0.2,0.2-0.3,0.5-0.3,1v21.2
		c0,0.4,0.1,0.7,0.3,0.9c0.2,0.2,0.5,0.3,1.1,0.5v0.7H212.4L212.4,264.4z M249.7,264.9c-4.8,0-8.7-1.3-11.8-3.9
		c-3.1-2.6-4.7-5.8-4.7-9.7c0-3.9,1.5-7.1,4.6-9.7c3.1-2.6,7.1-3.8,11.9-3.8c4.8,0,8.8,1.3,11.9,3.8c3.1,2.6,4.6,5.8,4.6,9.7
		c0,3.9-1.6,7.1-4.7,9.7C258.4,263.6,254.5,264.9,249.7,264.9L249.7,264.9z M241.4,251.4c0,2.3,0.8,4.1,2.3,5.4c1.5,1.4,3.5,2,6.1,2
		c2.5,0,4.5-0.7,6-2c1.5-1.4,2.3-3.2,2.3-5.4c0-2.2-0.8-4-2.3-5.4c-1.5-1.4-3.5-2.1-6-2.1c-2.5,0-4.5,0.7-6,2.1
		C242.1,247.4,241.4,249.2,241.4,251.4L241.4,251.4z M276.4,262.3c0,0.5,0.1,0.8,0.2,1c0.2,0.2,0.5,0.3,1,0.4v0.7h-9.1v-0.7
		c0.5-0.1,0.9-0.3,1-0.4c0.2-0.2,0.2-0.5,0.2-1v-21.2c0-0.5-0.1-0.8-0.2-1c-0.2-0.2-0.5-0.3-1-0.5v-0.7h11.9v0.7
		c-0.3,0.1-0.6,0.2-0.8,0.4c-0.2,0.1-0.3,0.3-0.3,0.5c0,0.2,0.2,0.5,0.6,0.9l0.2,0.3l11.4,11.7v-12.2c0-0.5-0.1-0.8-0.3-1
		c-0.2-0.2-0.5-0.3-1.1-0.5v-0.7h9.3v0.7c-0.6,0.1-0.9,0.3-1.1,0.5c-0.2,0.2-0.3,0.5-0.3,1v21.2c0,0.4,0.1,0.7,0.3,0.9
		c0.2,0.2,0.5,0.3,1.1,0.5v0.7h-9.8v-0.7c0.3-0.1,0.5-0.2,0.8-0.3c0.2-0.1,0.3-0.3,0.3-0.5c0-0.2-0.2-0.6-0.7-1.1
		c0,0-0.1-0.1-0.1-0.1l-13.6-13.9L276.4,262.3L276.4,262.3L276.4,262.3L276.4,262.3z M313,254.8h9.1l-4.7-11.2L313,254.8z
		 M324.4,264.4v-0.7c0.3-0.1,0.5-0.2,0.7-0.3c0.2-0.1,0.2-0.3,0.2-0.5c0-0.1,0-0.3-0.1-0.4c-0.1-0.2-0.2-0.5-0.3-0.7L324,259h-12.6
		l-1.1,2.7c-0.1,0.1-0.1,0.3-0.1,0.4c0,0.1-0.1,0.3,0,0.4c0,0.3,0.1,0.5,0.3,0.7c0.2,0.2,0.4,0.3,0.8,0.4v0.7h-9.2v-0.7
		c0.9-0.4,1.7-1.5,2.3-3.1l0.1-0.4l7.2-18.2c0.1-0.4,0.2-0.7,0.3-0.9c0.1-0.2,0.1-0.4,0.1-0.6c0-0.3-0.1-0.4-0.2-0.6
		c-0.1-0.1-0.3-0.2-0.6-0.2v-0.7h13.5v0.7c-0.3,0-0.5,0.1-0.6,0.2c-0.1,0.1-0.2,0.3-0.2,0.6c0,0.1,0,0.3,0.1,0.6
		c0.1,0.3,0.2,0.6,0.3,0.9l8.6,20.3c0,0,0,0,0,0.1c0.3,0.7,0.7,1.1,1.3,1.3v0.7L324.4,264.4L324.4,264.4L324.4,264.4L324.4,264.4z
		 M337.6,264.4v-0.7c0.5-0.1,0.9-0.2,1-0.4c0.2-0.2,0.2-0.5,0.2-1v-21.2c0-0.5-0.1-0.8-0.2-1c-0.2-0.2-0.5-0.3-1-0.5v-0.7h10.3v0.7
		c-0.6,0.1-0.9,0.3-1.1,0.5c-0.2,0.2-0.3,0.5-0.3,1v21.2c0,0.4,0.1,0.7,0.3,0.9c0.2,0.2,0.5,0.3,1.1,0.5v0.7H337.6L337.6,264.4z
		 M355.3,264.4v-0.7c0.5-0.1,0.9-0.3,1-0.4c0.2-0.2,0.2-0.5,0.2-1v-21.2c0-0.5-0.1-0.8-0.2-1c-0.2-0.2-0.5-0.3-1-0.5v-0.7h18.9
		c3.4,0,6,0.7,7.9,2.1c1.9,1.4,2.8,3.4,2.8,5.9c0,2-0.6,3.6-1.7,4.9c-1.2,1.3-2.9,2.3-5.2,2.9l4,5.9c0.7,1.1,1.3,1.8,1.7,2.2
		c0.4,0.4,0.9,0.6,1.4,0.7v0.7h-10.9l0-0.7c0.2-0.1,0.5-0.2,0.6-0.3c0.1-0.1,0.2-0.3,0.2-0.5c0-0.2-0.1-0.5-0.5-1
		c-0.1-0.2-0.2-0.3-0.3-0.4l-4.4-6.5h-5.6v7.3c0,0.4,0.1,0.8,0.3,0.9c0.2,0.2,0.5,0.3,1.1,0.5v0.7L355.3,264.4L355.3,264.4
		L355.3,264.4L355.3,264.4z M364.3,244.2v5.7h6.7c2.1,0,3.7-0.2,4.6-0.7c0.9-0.5,1.4-1.2,1.4-2.2c0-1.1-0.4-1.8-1.3-2.2
		c-0.9-0.4-2.5-0.6-4.9-0.6H364.3L364.3,244.2z M412.8,258.4c0.5,0,0.8-0.1,1-0.2c0.2-0.1,0.4-0.5,0.5-1h0.7v8.4h-0.7
		c-0.1-0.5-0.3-0.8-0.5-1c-0.2-0.2-0.5-0.2-1-0.2h-24.5v-0.7c0.5-0.1,0.9-0.2,1-0.4c0.2-0.2,0.2-0.5,0.2-1v-21.2
		c0-0.5-0.1-0.8-0.2-1c-0.2-0.2-0.5-0.3-1-0.5v-0.7h24.6c0.5,0,0.8-0.1,1-0.3c0.2-0.2,0.3-0.5,0.4-1h0.7v8.4h-0.7
		c-0.1-0.5-0.3-0.8-0.5-1c-0.2-0.2-0.5-0.2-1-0.2h-15.6v3.6h9.4c0.5,0,0.8-0.1,1-0.2c0.2-0.1,0.4-0.5,0.5-1h0.7v7.9h-0.7
		c-0.1-0.5-0.3-0.8-0.5-1c-0.2-0.2-0.5-0.2-1-0.2h-9.4v4.3L412.8,258.4L412.8,258.4L412.8,258.4z"/>
	<path id="XMLID_332_" class="st5" d="M94,261.4c0,0.4,0.1,0.8,0.3,0.9c0.2,0.2,0.5,0.3,1.1,0.5v0.7h-8.9v-0.7
		c0.6-0.1,0.9-0.3,1.1-0.5c0.2-0.2,0.3-0.5,0.3-0.9v-21.2c0-0.5-0.1-0.8-0.3-1c-0.2-0.2-0.5-0.3-1.1-0.5v-0.7h13.2v0.7
		c-0.4,0.1-0.6,0.2-0.8,0.4c-0.2,0.1-0.3,0.3-0.3,0.5c0,0.2,0.1,0.5,0.3,1c0,0.1,0.1,0.1,0.1,0.1l4.2,9.1l4.8-9.1
		c0.1-0.2,0.2-0.4,0.2-0.6c0.1-0.2,0.1-0.3,0.1-0.5c0-0.2-0.1-0.3-0.3-0.5c-0.2-0.2-0.5-0.3-0.8-0.4v-0.7h13.6v0.7
		c-0.6,0.1-0.9,0.3-1.1,0.5c-0.2,0.2-0.3,0.5-0.3,1v21.2c0,0.4,0.1,0.7,0.3,0.9c0.2,0.2,0.5,0.3,1.1,0.5v0.7H111v-0.7
		c0.6-0.1,0.9-0.3,1.1-0.5c0.2-0.2,0.3-0.5,0.3-0.9v-15.2L103,264l-9-17.8V261.4L94,261.4z M130.8,263.5v-0.7c0.5-0.1,0.9-0.3,1-0.4
		c0.2-0.2,0.2-0.5,0.2-1v-21.2c0-0.5-0.1-0.8-0.2-1c-0.2-0.2-0.5-0.3-1-0.5v-0.7h10.3v0.7c-0.6,0.1-0.9,0.3-1.1,0.5
		c-0.2,0.2-0.3,0.5-0.3,1v21.2c0,0.4,0.1,0.8,0.3,0.9c0.2,0.2,0.5,0.3,1.1,0.5v0.7H130.8L130.8,263.5z M175,257.5
		c0.5,0,0.8-0.1,1-0.2c0.2-0.1,0.4-0.5,0.5-1h0.7v8.4h-0.7c-0.1-0.5-0.3-0.8-0.5-1c-0.2-0.2-0.5-0.2-1-0.2h-25.7v-0.7
		c0.5-0.1,0.9-0.2,1-0.4c0.2-0.2,0.2-0.5,0.2-1v-21.2c0-0.5-0.1-0.8-0.2-1c-0.2-0.2-0.5-0.3-1-0.5v-0.7h10.3v0.7
		c-0.6,0.1-0.9,0.3-1.1,0.5c-0.2,0.2-0.3,0.5-0.3,1v17.3H175L175,257.5z M204.9,257.5c0.5,0,0.8-0.1,1-0.2c0.2-0.1,0.4-0.5,0.5-1
		h0.7v8.4h-0.7c-0.1-0.5-0.3-0.8-0.5-1c-0.2-0.1-0.5-0.2-1-0.2h-25.7v-0.7c0.5-0.1,0.9-0.3,1-0.4c0.2-0.2,0.2-0.5,0.2-1v-21.2
		c0-0.5-0.1-0.8-0.2-1c-0.2-0.2-0.5-0.3-1-0.5v-0.7h10.3v0.7c-0.6,0.1-0.9,0.3-1.1,0.5c-0.2,0.2-0.3,0.5-0.3,1v17.3H204.9
		L204.9,257.5z M211.5,263.5v-0.7c0.5-0.1,0.9-0.2,1-0.4c0.2-0.2,0.2-0.5,0.2-1v-21.2c0-0.5-0.1-0.8-0.2-1c-0.2-0.2-0.5-0.3-1-0.5
		v-0.7h10.3v0.7c-0.6,0.1-0.9,0.3-1.1,0.5c-0.2,0.2-0.3,0.5-0.3,1v21.2c0,0.4,0.1,0.7,0.3,0.9c0.2,0.2,0.5,0.3,1.1,0.5v0.7H211.5
		L211.5,263.5z M248.8,264c-4.8,0-8.7-1.3-11.8-3.9c-3.1-2.6-4.7-5.8-4.7-9.7c0-3.9,1.5-7.1,4.6-9.7c3.1-2.6,7.1-3.8,11.9-3.8
		c4.8,0,8.8,1.3,11.9,3.8c3.1,2.6,4.6,5.8,4.6,9.7c0,3.9-1.6,7.1-4.7,9.7C257.5,262.7,253.6,264,248.8,264L248.8,264z M240.5,250.5
		c0,2.3,0.8,4.1,2.3,5.4c1.5,1.4,3.5,2,6.1,2c2.5,0,4.5-0.7,6-2c1.5-1.4,2.3-3.2,2.3-5.4c0-2.2-0.8-4-2.3-5.4
		c-1.5-1.4-3.5-2.1-6-2.1c-2.5,0-4.5,0.7-6,2.1C241.2,246.5,240.5,248.3,240.5,250.5L240.5,250.5z M275.5,261.4c0,0.5,0.1,0.8,0.2,1
		c0.2,0.2,0.5,0.3,1,0.4v0.7h-9.1v-0.7c0.5-0.1,0.9-0.3,1-0.4c0.2-0.2,0.2-0.5,0.2-1v-21.2c0-0.5-0.1-0.8-0.2-1
		c-0.2-0.2-0.5-0.3-1-0.5v-0.7h11.9v0.7c-0.3,0.1-0.5,0.2-0.8,0.4c-0.2,0.1-0.3,0.3-0.3,0.5c0,0.2,0.2,0.5,0.6,0.9l0.3,0.3
		l11.4,11.7v-12.2c0-0.5-0.1-0.8-0.2-1c-0.2-0.2-0.5-0.3-1.1-0.5v-0.7h9.3v0.7c-0.5,0.1-0.9,0.3-1.1,0.5c-0.2,0.2-0.3,0.5-0.3,1
		v21.2c0,0.4,0.1,0.7,0.3,0.9c0.2,0.2,0.5,0.3,1.1,0.5v0.7h-9.8v-0.7c0.3-0.1,0.5-0.2,0.8-0.3c0.2-0.1,0.3-0.3,0.3-0.5
		c0-0.2-0.2-0.6-0.7-1.1c0,0-0.1-0.1-0.1-0.1L275.5,247V261.4z M312.1,253.9h9.1l-4.7-11.2L312.1,253.9L312.1,253.9z M323.5,263.5
		v-0.7c0.3-0.1,0.5-0.2,0.7-0.3c0.2-0.1,0.2-0.3,0.2-0.5c0-0.1,0-0.3-0.1-0.4c-0.1-0.2-0.2-0.5-0.3-0.7l-1.1-2.7h-12.6l-1.1,2.7
		c-0.1,0.2-0.1,0.3-0.2,0.4c0,0.1,0,0.3,0,0.4c0,0.3,0.1,0.5,0.3,0.7c0.2,0.2,0.5,0.4,0.8,0.4v0.7H301v-0.7c0.9-0.4,1.7-1.5,2.3-3.1
		c0.1-0.2,0.1-0.3,0.1-0.4l7.2-18.3c0.1-0.4,0.3-0.7,0.3-0.9c0.1-0.2,0.1-0.4,0.1-0.6c0-0.3-0.1-0.4-0.2-0.6
		c-0.1-0.1-0.3-0.2-0.6-0.2v-0.7h13.5v0.7c-0.3,0-0.5,0.1-0.6,0.2c-0.1,0.1-0.2,0.3-0.2,0.6c0,0.1,0,0.3,0.1,0.6
		c0.1,0.3,0.2,0.6,0.3,0.9l8.6,20.3c0,0,0,0,0,0.1c0.3,0.7,0.7,1.1,1.3,1.3v0.7L323.5,263.5L323.5,263.5z M336.7,263.5v-0.7
		c0.5-0.1,0.9-0.2,1-0.4c0.2-0.2,0.2-0.5,0.2-1v-21.2c0-0.5-0.1-0.8-0.2-1c-0.2-0.2-0.5-0.3-1-0.5v-0.7H347v0.7
		c-0.6,0.1-0.9,0.3-1.1,0.5c-0.2,0.2-0.2,0.5-0.2,1v21.2c0,0.4,0.1,0.7,0.2,0.9c0.2,0.2,0.5,0.3,1.1,0.5v0.7H336.7L336.7,263.5z
		 M354.4,263.5v-0.7c0.5-0.1,0.9-0.3,1-0.4c0.2-0.2,0.2-0.5,0.2-1v-21.2c0-0.5-0.1-0.8-0.2-1c-0.2-0.2-0.5-0.3-1-0.5v-0.7h18.9
		c3.4,0,6,0.7,7.9,2.1c1.9,1.4,2.8,3.4,2.8,5.9c0,2-0.6,3.6-1.8,4.9c-1.2,1.3-2.9,2.3-5.2,2.9l4,5.9c0.7,1.1,1.3,1.8,1.7,2.2
		c0.4,0.4,0.9,0.6,1.4,0.7v0.7h-10.9l0-0.7c0.2-0.1,0.5-0.2,0.6-0.3c0.1-0.1,0.2-0.3,0.2-0.5c0-0.2-0.2-0.5-0.5-1
		c-0.1-0.2-0.2-0.3-0.3-0.4l-4.4-6.5h-5.6v7.3c0,0.4,0.1,0.8,0.2,0.9c0.2,0.2,0.5,0.3,1.1,0.5v0.7L354.4,263.5L354.4,263.5z
		 M363.4,243.3v5.7h6.7c2.1,0,3.7-0.2,4.6-0.7c0.9-0.5,1.4-1.2,1.4-2.2c0-1.1-0.4-1.8-1.3-2.2c-0.9-0.4-2.5-0.6-4.9-0.6L363.4,243.3
		L363.4,243.3z M411.8,257.5c0.5,0,0.8-0.1,1-0.2c0.2-0.1,0.4-0.5,0.5-1h0.7v8.4h-0.7c-0.1-0.5-0.3-0.8-0.5-1
		c-0.2-0.2-0.5-0.2-1-0.2h-24.5v-0.7c0.5-0.1,0.9-0.2,1-0.4c0.2-0.2,0.2-0.5,0.2-1v-21.2c0-0.5-0.1-0.8-0.2-1
		c-0.2-0.2-0.5-0.3-1-0.5v-0.7h24.6c0.5,0,0.8-0.1,1-0.3c0.2-0.2,0.3-0.5,0.4-1h0.7v8.4h-0.7c-0.1-0.5-0.3-0.8-0.5-1
		c-0.2-0.2-0.5-0.2-1-0.2h-15.6v3.6h9.4c0.5,0,0.8-0.1,1-0.2c0.2-0.1,0.4-0.5,0.5-1h0.7v7.9h-0.7c-0.2-0.5-0.3-0.8-0.5-1
		c-0.2-0.1-0.5-0.2-1-0.2h-9.4v4.3L411.8,257.5L411.8,257.5L411.8,257.5L411.8,257.5z"/>
</g>
</svg>
